<?xml version="1.0" encoding="utf-8" standalone="no"?>
<!DOCTYPE svg PUBLIC "-//W3C//DTD SVG 1.1//EN"
  "http://www.w3.org/Graphics/SVG/1.1/DTD/svg11.dtd">
<!-- Created with matplotlib (https://matplotlib.org/) -->
<svg height="423.893812pt" version="1.1" viewBox="0 0 856.8 423.893812" width="856.8pt" xmlns="http://www.w3.org/2000/svg" xmlns:xlink="http://www.w3.org/1999/xlink">
 <defs>
  <style type="text/css">
*{stroke-linecap:butt;stroke-linejoin:round;}
  </style>
 </defs>
 <g id="figure_1">
  <g id="patch_1">
   <path d="M 0 423.893812 
L 856.8 423.893812 
L 856.8 0 
L 0 0 
z
" style="fill:#ffffff;"/>
  </g>
  <g id="axes_1">
   <g id="patch_2">
    <path clip-path="url(#p464728c286)" d="M -1.224 275.164373 
L 99.864 275.164373 
L 99.864 175.711253 
L -1.224 175.711253 
z
" style="fill:#cce5ff;stroke:#000000;stroke-linejoin:miter;stroke-width:1.5;"/>
   </g>
   <g id="patch_3">
    <path clip-path="url(#p464728c286)" d="M 141.984 275.164373 
L 243.072 275.164373 
L 243.072 175.711253 
L 141.984 175.711253 
z
" style="fill:#fff2cc;stroke:#000000;stroke-linejoin:miter;stroke-width:1.5;"/>
   </g>
   <g id="patch_4">
    <path clip-path="url(#p464728c286)" d="M 310.464 275.164373 
L 411.552 275.164373 
L 411.552 175.711253 
L 310.464 175.711253 
z
" style="fill:#d4edda;stroke:#000000;stroke-linejoin:miter;stroke-width:1.5;"/>
   </g>
   <g id="patch_5">
    <path clip-path="url(#p464728c286)" d="M 478.944 217.787572 
L 580.032 217.787572 
L 580.032 118.334452 
L 478.944 118.334452 
z
" style="fill:#f8d7da;stroke:#000000;stroke-linejoin:miter;stroke-width:1.5;"/>
   </g>
   <g id="patch_6">
    <path clip-path="url(#p464728c286)" d="M 478.944 332.541172 
L 580.032 332.541172 
L 580.032 233.088052 
L 478.944 233.088052 
z
" style="fill:#f8d7da;stroke:#000000;stroke-linejoin:miter;stroke-width:1.5;"/>
   </g>
   <g id="patch_7">
    <path clip-path="url(#p464728c286)" d="M 647.424 275.164373 
L 748.512 275.164373 
L 748.512 175.711253 
L 647.424 175.711253 
z
" style="fill:#f8d7da;stroke:#000000;stroke-linejoin:miter;stroke-width:1.5;"/>
   </g>
   <g id="patch_8">
    <path clip-path="url(#p464728c286)" d="M 756.936 275.164373 
L 858.024 275.164373 
L 858.024 175.711253 
L 756.936 175.711253 
z
" style="fill:#cce5ff;stroke:#000000;stroke-linejoin:miter;stroke-width:1.5;"/>
   </g>
   <g id="text_1">
    <!-- INPUTS -->
    <defs>
     <path d="M 9.1875 72.90625 
L 27.984375 72.90625 
L 27.984375 0 
L 9.1875 0 
z
" id="DejaVuSans-Bold-73"/>
     <path d="M 9.1875 72.90625 
L 30.171875 72.90625 
L 56.6875 22.90625 
L 56.6875 72.90625 
L 74.515625 72.90625 
L 74.515625 0 
L 53.515625 0 
L 27 50 
L 27 0 
L 9.1875 0 
z
" id="DejaVuSans-Bold-78"/>
     <path d="M 9.1875 72.90625 
L 40.375 72.90625 
Q 54.296875 72.90625 61.734375 66.71875 
Q 69.1875 60.546875 69.1875 49.125 
Q 69.1875 37.640625 61.734375 31.46875 
Q 54.296875 25.296875 40.375 25.296875 
L 27.984375 25.296875 
L 27.984375 0 
L 9.1875 0 
z
M 27.984375 59.28125 
L 27.984375 38.921875 
L 38.375 38.921875 
Q 43.84375 38.921875 46.828125 41.578125 
Q 49.8125 44.234375 49.8125 49.125 
Q 49.8125 54 46.828125 56.640625 
Q 43.84375 59.28125 38.375 59.28125 
z
" id="DejaVuSans-Bold-80"/>
     <path d="M 9.1875 72.90625 
L 27.984375 72.90625 
L 27.984375 29.203125 
Q 27.984375 20.171875 30.9375 16.28125 
Q 33.890625 12.40625 40.578125 12.40625 
Q 47.3125 12.40625 50.265625 16.28125 
Q 53.21875 20.171875 53.21875 29.203125 
L 53.21875 72.90625 
L 72.015625 72.90625 
L 72.015625 29.203125 
Q 72.015625 13.71875 64.25 6.140625 
Q 56.5 -1.421875 40.578125 -1.421875 
Q 24.703125 -1.421875 16.9375 6.140625 
Q 9.1875 13.71875 9.1875 29.203125 
z
" id="DejaVuSans-Bold-85"/>
     <path d="M 0.484375 72.90625 
L 67.671875 72.90625 
L 67.671875 58.6875 
L 43.5 58.6875 
L 43.5 0 
L 24.703125 0 
L 24.703125 58.6875 
L 0.484375 58.6875 
z
" id="DejaVuSans-Bold-84"/>
     <path d="M 59.90625 70.609375 
L 59.90625 55.171875 
Q 53.90625 57.859375 48.1875 59.21875 
Q 42.484375 60.59375 37.40625 60.59375 
Q 30.671875 60.59375 27.4375 58.734375 
Q 24.21875 56.890625 24.21875 52.984375 
Q 24.21875 50.046875 26.390625 48.40625 
Q 28.5625 46.78125 34.28125 45.609375 
L 42.28125 44 
Q 54.4375 41.546875 59.5625 36.5625 
Q 64.703125 31.59375 64.703125 22.40625 
Q 64.703125 10.359375 57.546875 4.46875 
Q 50.390625 -1.421875 35.6875 -1.421875 
Q 28.765625 -1.421875 21.78125 -0.09375 
Q 14.796875 1.21875 7.8125 3.8125 
L 7.8125 19.671875 
Q 14.796875 15.96875 21.3125 14.078125 
Q 27.828125 12.203125 33.890625 12.203125 
Q 40.046875 12.203125 43.3125 14.25 
Q 46.578125 16.3125 46.578125 20.125 
Q 46.578125 23.53125 44.359375 25.390625 
Q 42.140625 27.25 35.5 28.71875 
L 28.21875 30.328125 
Q 17.28125 32.671875 12.21875 37.796875 
Q 7.171875 42.921875 7.171875 51.609375 
Q 7.171875 62.5 14.203125 68.359375 
Q 21.234375 74.21875 34.421875 74.21875 
Q 40.4375 74.21875 46.78125 73.3125 
Q 53.125 72.40625 59.90625 70.609375 
z
" id="DejaVuSans-Bold-83"/>
    </defs>
    <g transform="translate(32.695 197.044353)scale(0.08 -0.08)">
     <use xlink:href="#DejaVuSans-Bold-73"/>
     <use x="37.207031" xlink:href="#DejaVuSans-Bold-78"/>
     <use x="120.898438" xlink:href="#DejaVuSans-Bold-80"/>
     <use x="194.189453" xlink:href="#DejaVuSans-Bold-85"/>
     <use x="275.390625" xlink:href="#DejaVuSans-Bold-84"/>
     <use x="343.603516" xlink:href="#DejaVuSans-Bold-83"/>
    </g>
   </g>
   <g id="text_2">
    <!-- DENV 1-4 -->
    <defs>
     <path d="M 19.671875 64.796875 
L 19.671875 8.109375 
L 31.59375 8.109375 
Q 46.6875 8.109375 53.6875 14.9375 
Q 60.6875 21.78125 60.6875 36.53125 
Q 60.6875 51.171875 53.6875 57.984375 
Q 46.6875 64.796875 31.59375 64.796875 
z
M 9.8125 72.90625 
L 30.078125 72.90625 
Q 51.265625 72.90625 61.171875 64.09375 
Q 71.09375 55.28125 71.09375 36.53125 
Q 71.09375 17.671875 61.125 8.828125 
Q 51.171875 0 30.078125 0 
L 9.8125 0 
z
" id="DejaVuSans-68"/>
     <path d="M 9.8125 72.90625 
L 55.90625 72.90625 
L 55.90625 64.59375 
L 19.671875 64.59375 
L 19.671875 43.015625 
L 54.390625 43.015625 
L 54.390625 34.71875 
L 19.671875 34.71875 
L 19.671875 8.296875 
L 56.78125 8.296875 
L 56.78125 0 
L 9.8125 0 
z
" id="DejaVuSans-69"/>
     <path d="M 9.8125 72.90625 
L 23.09375 72.90625 
L 55.421875 11.921875 
L 55.421875 72.90625 
L 64.984375 72.90625 
L 64.984375 0 
L 51.703125 0 
L 19.390625 60.984375 
L 19.390625 0 
L 9.8125 0 
z
" id="DejaVuSans-78"/>
     <path d="M 28.609375 0 
L 0.78125 72.90625 
L 11.078125 72.90625 
L 34.1875 11.53125 
L 57.328125 72.90625 
L 67.578125 72.90625 
L 39.796875 0 
z
" id="DejaVuSans-86"/>
     <path id="DejaVuSans-32"/>
     <path d="M 12.40625 8.296875 
L 28.515625 8.296875 
L 28.515625 63.921875 
L 10.984375 60.40625 
L 10.984375 69.390625 
L 28.421875 72.90625 
L 38.28125 72.90625 
L 38.28125 8.296875 
L 54.390625 8.296875 
L 54.390625 0 
L 12.40625 0 
z
" id="DejaVuSans-49"/>
     <path d="M 4.890625 31.390625 
L 31.203125 31.390625 
L 31.203125 23.390625 
L 4.890625 23.390625 
z
" id="DejaVuSans-45"/>
     <path d="M 37.796875 64.3125 
L 12.890625 25.390625 
L 37.796875 25.390625 
z
M 35.203125 72.90625 
L 47.609375 72.90625 
L 47.609375 25.390625 
L 58.015625 25.390625 
L 58.015625 17.1875 
L 47.609375 17.1875 
L 47.609375 0 
L 37.796875 0 
L 37.796875 17.1875 
L 4.890625 17.1875 
L 4.890625 26.703125 
z
" id="DejaVuSans-52"/>
    </defs>
    <g transform="translate(32.571953 238.750621)scale(0.07 -0.07)">
     <use xlink:href="#DejaVuSans-68"/>
     <use x="77.001953" xlink:href="#DejaVuSans-69"/>
     <use x="140.185547" xlink:href="#DejaVuSans-78"/>
     <use x="214.990234" xlink:href="#DejaVuSans-86"/>
     <use x="283.398438" xlink:href="#DejaVuSans-32"/>
     <use x="315.185547" xlink:href="#DejaVuSans-49"/>
     <use x="378.808594" xlink:href="#DejaVuSans-45"/>
     <use x="414.892578" xlink:href="#DejaVuSans-52"/>
    </g>
    <!-- polyproteins -->
    <defs>
     <path d="M 18.109375 8.203125 
L 18.109375 -20.796875 
L 9.078125 -20.796875 
L 9.078125 54.6875 
L 18.109375 54.6875 
L 18.109375 46.390625 
Q 20.953125 51.265625 25.265625 53.625 
Q 29.59375 56 35.59375 56 
Q 45.5625 56 51.78125 48.09375 
Q 58.015625 40.1875 58.015625 27.296875 
Q 58.015625 14.40625 51.78125 6.484375 
Q 45.5625 -1.421875 35.59375 -1.421875 
Q 29.59375 -1.421875 25.265625 0.953125 
Q 20.953125 3.328125 18.109375 8.203125 
z
M 48.6875 27.296875 
Q 48.6875 37.203125 44.609375 42.84375 
Q 40.53125 48.484375 33.40625 48.484375 
Q 26.265625 48.484375 22.1875 42.84375 
Q 18.109375 37.203125 18.109375 27.296875 
Q 18.109375 17.390625 22.1875 11.75 
Q 26.265625 6.109375 33.40625 6.109375 
Q 40.53125 6.109375 44.609375 11.75 
Q 48.6875 17.390625 48.6875 27.296875 
z
" id="DejaVuSans-112"/>
     <path d="M 30.609375 48.390625 
Q 23.390625 48.390625 19.1875 42.75 
Q 14.984375 37.109375 14.984375 27.296875 
Q 14.984375 17.484375 19.15625 11.84375 
Q 23.34375 6.203125 30.609375 6.203125 
Q 37.796875 6.203125 41.984375 11.859375 
Q 46.1875 17.53125 46.1875 27.296875 
Q 46.1875 37.015625 41.984375 42.703125 
Q 37.796875 48.390625 30.609375 48.390625 
z
M 30.609375 56 
Q 42.328125 56 49.015625 48.375 
Q 55.71875 40.765625 55.71875 27.296875 
Q 55.71875 13.875 49.015625 6.21875 
Q 42.328125 -1.421875 30.609375 -1.421875 
Q 18.84375 -1.421875 12.171875 6.21875 
Q 5.515625 13.875 5.515625 27.296875 
Q 5.515625 40.765625 12.171875 48.375 
Q 18.84375 56 30.609375 56 
z
" id="DejaVuSans-111"/>
     <path d="M 9.421875 75.984375 
L 18.40625 75.984375 
L 18.40625 0 
L 9.421875 0 
z
" id="DejaVuSans-108"/>
     <path d="M 32.171875 -5.078125 
Q 28.375 -14.84375 24.75 -17.8125 
Q 21.140625 -20.796875 15.09375 -20.796875 
L 7.90625 -20.796875 
L 7.90625 -13.28125 
L 13.1875 -13.28125 
Q 16.890625 -13.28125 18.9375 -11.515625 
Q 21 -9.765625 23.484375 -3.21875 
L 25.09375 0.875 
L 2.984375 54.6875 
L 12.5 54.6875 
L 29.59375 11.921875 
L 46.6875 54.6875 
L 56.203125 54.6875 
z
" id="DejaVuSans-121"/>
     <path d="M 41.109375 46.296875 
Q 39.59375 47.171875 37.8125 47.578125 
Q 36.03125 48 33.890625 48 
Q 26.265625 48 22.1875 43.046875 
Q 18.109375 38.09375 18.109375 28.8125 
L 18.109375 0 
L 9.078125 0 
L 9.078125 54.6875 
L 18.109375 54.6875 
L 18.109375 46.1875 
Q 20.953125 51.171875 25.484375 53.578125 
Q 30.03125 56 36.53125 56 
Q 37.453125 56 38.578125 55.875 
Q 39.703125 55.765625 41.0625 55.515625 
z
" id="DejaVuSans-114"/>
     <path d="M 18.3125 70.21875 
L 18.3125 54.6875 
L 36.8125 54.6875 
L 36.8125 47.703125 
L 18.3125 47.703125 
L 18.3125 18.015625 
Q 18.3125 11.328125 20.140625 9.421875 
Q 21.96875 7.515625 27.59375 7.515625 
L 36.8125 7.515625 
L 36.8125 0 
L 27.59375 0 
Q 17.1875 0 13.234375 3.875 
Q 9.28125 7.765625 9.28125 18.015625 
L 9.28125 47.703125 
L 2.6875 47.703125 
L 2.6875 54.6875 
L 9.28125 54.6875 
L 9.28125 70.21875 
z
" id="DejaVuSans-116"/>
     <path d="M 56.203125 29.59375 
L 56.203125 25.203125 
L 14.890625 25.203125 
Q 15.484375 15.921875 20.484375 11.0625 
Q 25.484375 6.203125 34.421875 6.203125 
Q 39.59375 6.203125 44.453125 7.46875 
Q 49.3125 8.734375 54.109375 11.28125 
L 54.109375 2.78125 
Q 49.265625 0.734375 44.1875 -0.34375 
Q 39.109375 -1.421875 33.890625 -1.421875 
Q 20.796875 -1.421875 13.15625 6.1875 
Q 5.515625 13.8125 5.515625 26.8125 
Q 5.515625 40.234375 12.765625 48.109375 
Q 20.015625 56 32.328125 56 
Q 43.359375 56 49.78125 48.890625 
Q 56.203125 41.796875 56.203125 29.59375 
z
M 47.21875 32.234375 
Q 47.125 39.59375 43.09375 43.984375 
Q 39.0625 48.390625 32.421875 48.390625 
Q 24.90625 48.390625 20.390625 44.140625 
Q 15.875 39.890625 15.1875 32.171875 
z
" id="DejaVuSans-101"/>
     <path d="M 9.421875 54.6875 
L 18.40625 54.6875 
L 18.40625 0 
L 9.421875 0 
z
M 9.421875 75.984375 
L 18.40625 75.984375 
L 18.40625 64.59375 
L 9.421875 64.59375 
z
" id="DejaVuSans-105"/>
     <path d="M 54.890625 33.015625 
L 54.890625 0 
L 45.90625 0 
L 45.90625 32.71875 
Q 45.90625 40.484375 42.875 44.328125 
Q 39.84375 48.1875 33.796875 48.1875 
Q 26.515625 48.1875 22.3125 43.546875 
Q 18.109375 38.921875 18.109375 30.90625 
L 18.109375 0 
L 9.078125 0 
L 9.078125 54.6875 
L 18.109375 54.6875 
L 18.109375 46.1875 
Q 21.34375 51.125 25.703125 53.5625 
Q 30.078125 56 35.796875 56 
Q 45.21875 56 50.046875 50.171875 
Q 54.890625 44.34375 54.890625 33.015625 
z
" id="DejaVuSans-110"/>
     <path d="M 44.28125 53.078125 
L 44.28125 44.578125 
Q 40.484375 46.53125 36.375 47.5 
Q 32.28125 48.484375 27.875 48.484375 
Q 21.1875 48.484375 17.84375 46.4375 
Q 14.5 44.390625 14.5 40.28125 
Q 14.5 37.15625 16.890625 35.375 
Q 19.28125 33.59375 26.515625 31.984375 
L 29.59375 31.296875 
Q 39.15625 29.25 43.1875 25.515625 
Q 47.21875 21.78125 47.21875 15.09375 
Q 47.21875 7.46875 41.1875 3.015625 
Q 35.15625 -1.421875 24.609375 -1.421875 
Q 20.21875 -1.421875 15.453125 -0.5625 
Q 10.6875 0.296875 5.421875 2 
L 5.421875 11.28125 
Q 10.40625 8.6875 15.234375 7.390625 
Q 20.0625 6.109375 24.8125 6.109375 
Q 31.15625 6.109375 34.5625 8.28125 
Q 37.984375 10.453125 37.984375 14.40625 
Q 37.984375 18.0625 35.515625 20.015625 
Q 33.0625 21.96875 24.703125 23.78125 
L 21.578125 24.515625 
Q 13.234375 26.265625 9.515625 29.90625 
Q 5.8125 33.546875 5.8125 39.890625 
Q 5.8125 47.609375 11.28125 51.796875 
Q 16.75 56 26.8125 56 
Q 31.78125 56 36.171875 55.265625 
Q 40.578125 54.546875 44.28125 53.078125 
z
" id="DejaVuSans-115"/>
    </defs>
    <g transform="translate(27.571875 246.589089)scale(0.07 -0.07)">
     <use xlink:href="#DejaVuSans-112"/>
     <use x="63.476562" xlink:href="#DejaVuSans-111"/>
     <use x="124.658203" xlink:href="#DejaVuSans-108"/>
     <use x="152.441406" xlink:href="#DejaVuSans-121"/>
     <use x="211.621094" xlink:href="#DejaVuSans-112"/>
     <use x="275.097656" xlink:href="#DejaVuSans-114"/>
     <use x="316.179688" xlink:href="#DejaVuSans-111"/>
     <use x="377.361328" xlink:href="#DejaVuSans-116"/>
     <use x="416.570312" xlink:href="#DejaVuSans-101"/>
     <use x="478.09375" xlink:href="#DejaVuSans-105"/>
     <use x="505.876953" xlink:href="#DejaVuSans-110"/>
     <use x="569.255859" xlink:href="#DejaVuSans-115"/>
    </g>
   </g>
   <g id="text_3">
    <!-- AXIS 1 -->
    <defs>
     <path d="M 53.421875 13.28125 
L 24.03125 13.28125 
L 19.390625 0 
L 0.484375 0 
L 27.484375 72.90625 
L 49.90625 72.90625 
L 76.90625 0 
L 58.015625 0 
z
M 28.71875 26.8125 
L 48.6875 26.8125 
L 38.71875 55.8125 
z
" id="DejaVuSans-Bold-65"/>
     <path d="M 49.8125 37.203125 
L 75.09375 0 
L 55.515625 0 
L 38.484375 24.90625 
L 21.578125 0 
L 1.90625 0 
L 27.203125 37.203125 
L 2.875 72.90625 
L 22.515625 72.90625 
L 38.484375 49.421875 
L 54.390625 72.90625 
L 74.125 72.90625 
z
" id="DejaVuSans-Bold-88"/>
     <path id="DejaVuSans-Bold-32"/>
     <path d="M 11.71875 12.984375 
L 28.328125 12.984375 
L 28.328125 60.109375 
L 11.28125 56.59375 
L 11.28125 69.390625 
L 28.21875 72.90625 
L 46.09375 72.90625 
L 46.09375 12.984375 
L 62.703125 12.984375 
L 62.703125 0 
L 11.71875 0 
z
" id="DejaVuSans-Bold-49"/>
    </defs>
    <g transform="translate(177.80425 192.565227)scale(0.08 -0.08)">
     <use xlink:href="#DejaVuSans-Bold-65"/>
     <use x="77.392578" xlink:href="#DejaVuSans-Bold-88"/>
     <use x="154.492188" xlink:href="#DejaVuSans-Bold-73"/>
     <use x="191.699219" xlink:href="#DejaVuSans-Bold-83"/>
     <use x="263.720703" xlink:href="#DejaVuSans-Bold-32"/>
     <use x="298.535156" xlink:href="#DejaVuSans-Bold-49"/>
    </g>
    <!-- GEOMETRY -->
    <defs>
     <path d="M 74.703125 5.421875 
Q 67.671875 2 60.109375 0.28125 
Q 52.546875 -1.421875 44.484375 -1.421875 
Q 26.265625 -1.421875 15.625 8.765625 
Q 4.984375 18.953125 4.984375 36.375 
Q 4.984375 54 15.8125 64.109375 
Q 26.65625 74.21875 45.515625 74.21875 
Q 52.78125 74.21875 59.4375 72.84375 
Q 66.109375 71.484375 72.015625 68.796875 
L 72.015625 53.71875 
Q 65.921875 57.171875 59.890625 58.875 
Q 53.859375 60.59375 47.796875 60.59375 
Q 36.578125 60.59375 30.5 54.3125 
Q 24.421875 48.046875 24.421875 36.375 
Q 24.421875 24.8125 30.28125 18.5 
Q 36.140625 12.203125 46.921875 12.203125 
Q 49.859375 12.203125 52.375 12.5625 
Q 54.890625 12.9375 56.890625 13.71875 
L 56.890625 27.875 
L 45.40625 27.875 
L 45.40625 40.484375 
L 74.703125 40.484375 
z
" id="DejaVuSans-Bold-71"/>
     <path d="M 9.1875 72.90625 
L 59.90625 72.90625 
L 59.90625 58.6875 
L 27.984375 58.6875 
L 27.984375 45.125 
L 58.015625 45.125 
L 58.015625 30.90625 
L 27.984375 30.90625 
L 27.984375 14.203125 
L 60.984375 14.203125 
L 60.984375 0 
L 9.1875 0 
z
" id="DejaVuSans-Bold-69"/>
     <path d="M 42.484375 60.59375 
Q 33.890625 60.59375 29.15625 54.25 
Q 24.421875 47.90625 24.421875 36.375 
Q 24.421875 24.90625 29.15625 18.546875 
Q 33.890625 12.203125 42.484375 12.203125 
Q 51.125 12.203125 55.859375 18.546875 
Q 60.59375 24.90625 60.59375 36.375 
Q 60.59375 47.90625 55.859375 54.25 
Q 51.125 60.59375 42.484375 60.59375 
z
M 42.484375 74.21875 
Q 60.0625 74.21875 70.015625 64.15625 
Q 79.984375 54.109375 79.984375 36.375 
Q 79.984375 18.703125 70.015625 8.640625 
Q 60.0625 -1.421875 42.484375 -1.421875 
Q 24.953125 -1.421875 14.96875 8.640625 
Q 4.984375 18.703125 4.984375 36.375 
Q 4.984375 54.109375 14.96875 64.15625 
Q 24.953125 74.21875 42.484375 74.21875 
z
" id="DejaVuSans-Bold-79"/>
     <path d="M 9.1875 72.90625 
L 33.109375 72.90625 
L 49.703125 33.890625 
L 66.40625 72.90625 
L 90.28125 72.90625 
L 90.28125 0 
L 72.515625 0 
L 72.515625 53.328125 
L 55.71875 14.015625 
L 43.796875 14.015625 
L 27 53.328125 
L 27 0 
L 9.1875 0 
z
" id="DejaVuSans-Bold-77"/>
     <path d="M 35.890625 40.578125 
Q 41.796875 40.578125 44.359375 42.765625 
Q 46.921875 44.96875 46.921875 50 
Q 46.921875 54.984375 44.359375 57.125 
Q 41.796875 59.28125 35.890625 59.28125 
L 27.984375 59.28125 
L 27.984375 40.578125 
z
M 27.984375 27.59375 
L 27.984375 0 
L 9.1875 0 
L 9.1875 72.90625 
L 37.890625 72.90625 
Q 52.296875 72.90625 59 68.0625 
Q 65.71875 63.234375 65.71875 52.78125 
Q 65.71875 45.5625 62.21875 40.921875 
Q 58.734375 36.28125 51.703125 34.078125 
Q 55.5625 33.203125 58.609375 30.09375 
Q 61.671875 27 64.796875 20.703125 
L 75 0 
L 54.984375 0 
L 46.09375 18.109375 
Q 43.40625 23.578125 40.640625 25.578125 
Q 37.890625 27.59375 33.296875 27.59375 
z
" id="DejaVuSans-Bold-82"/>
     <path d="M -0.984375 72.90625 
L 19.578125 72.90625 
L 36.1875 46.921875 
L 52.78125 72.90625 
L 73.390625 72.90625 
L 45.609375 30.71875 
L 45.609375 0 
L 26.8125 0 
L 26.8125 30.71875 
z
" id="DejaVuSans-Bold-89"/>
    </defs>
    <g transform="translate(167.69675 201.523477)scale(0.08 -0.08)">
     <use xlink:href="#DejaVuSans-Bold-71"/>
     <use x="82.080078" xlink:href="#DejaVuSans-Bold-69"/>
     <use x="150.390625" xlink:href="#DejaVuSans-Bold-79"/>
     <use x="235.400391" xlink:href="#DejaVuSans-Bold-77"/>
     <use x="334.912109" xlink:href="#DejaVuSans-Bold-69"/>
     <use x="403.222656" xlink:href="#DejaVuSans-Bold-84"/>
     <use x="471.435547" xlink:href="#DejaVuSans-Bold-82"/>
     <use x="548.359375" xlink:href="#DejaVuSans-Bold-89"/>
    </g>
   </g>
   <g id="text_4">
    <!-- AlphaFold-Multimer -->
    <defs>
     <path d="M 34.1875 63.1875 
L 20.796875 26.90625 
L 47.609375 26.90625 
z
M 28.609375 72.90625 
L 39.796875 72.90625 
L 67.578125 0 
L 57.328125 0 
L 50.6875 18.703125 
L 17.828125 18.703125 
L 11.1875 0 
L 0.78125 0 
z
" id="DejaVuSans-65"/>
     <path d="M 54.890625 33.015625 
L 54.890625 0 
L 45.90625 0 
L 45.90625 32.71875 
Q 45.90625 40.484375 42.875 44.328125 
Q 39.84375 48.1875 33.796875 48.1875 
Q 26.515625 48.1875 22.3125 43.546875 
Q 18.109375 38.921875 18.109375 30.90625 
L 18.109375 0 
L 9.078125 0 
L 9.078125 75.984375 
L 18.109375 75.984375 
L 18.109375 46.1875 
Q 21.34375 51.125 25.703125 53.5625 
Q 30.078125 56 35.796875 56 
Q 45.21875 56 50.046875 50.171875 
Q 54.890625 44.34375 54.890625 33.015625 
z
" id="DejaVuSans-104"/>
     <path d="M 34.28125 27.484375 
Q 23.390625 27.484375 19.1875 25 
Q 14.984375 22.515625 14.984375 16.5 
Q 14.984375 11.71875 18.140625 8.90625 
Q 21.296875 6.109375 26.703125 6.109375 
Q 34.1875 6.109375 38.703125 11.40625 
Q 43.21875 16.703125 43.21875 25.484375 
L 43.21875 27.484375 
z
M 52.203125 31.203125 
L 52.203125 0 
L 43.21875 0 
L 43.21875 8.296875 
Q 40.140625 3.328125 35.546875 0.953125 
Q 30.953125 -1.421875 24.3125 -1.421875 
Q 15.921875 -1.421875 10.953125 3.296875 
Q 6 8.015625 6 15.921875 
Q 6 25.140625 12.171875 29.828125 
Q 18.359375 34.515625 30.609375 34.515625 
L 43.21875 34.515625 
L 43.21875 35.40625 
Q 43.21875 41.609375 39.140625 45 
Q 35.0625 48.390625 27.6875 48.390625 
Q 23 48.390625 18.546875 47.265625 
Q 14.109375 46.140625 10.015625 43.890625 
L 10.015625 52.203125 
Q 14.9375 54.109375 19.578125 55.046875 
Q 24.21875 56 28.609375 56 
Q 40.484375 56 46.34375 49.84375 
Q 52.203125 43.703125 52.203125 31.203125 
z
" id="DejaVuSans-97"/>
     <path d="M 9.8125 72.90625 
L 51.703125 72.90625 
L 51.703125 64.59375 
L 19.671875 64.59375 
L 19.671875 43.109375 
L 48.578125 43.109375 
L 48.578125 34.8125 
L 19.671875 34.8125 
L 19.671875 0 
L 9.8125 0 
z
" id="DejaVuSans-70"/>
     <path d="M 45.40625 46.390625 
L 45.40625 75.984375 
L 54.390625 75.984375 
L 54.390625 0 
L 45.40625 0 
L 45.40625 8.203125 
Q 42.578125 3.328125 38.25 0.953125 
Q 33.9375 -1.421875 27.875 -1.421875 
Q 17.96875 -1.421875 11.734375 6.484375 
Q 5.515625 14.40625 5.515625 27.296875 
Q 5.515625 40.1875 11.734375 48.09375 
Q 17.96875 56 27.875 56 
Q 33.9375 56 38.25 53.625 
Q 42.578125 51.265625 45.40625 46.390625 
z
M 14.796875 27.296875 
Q 14.796875 17.390625 18.875 11.75 
Q 22.953125 6.109375 30.078125 6.109375 
Q 37.203125 6.109375 41.296875 11.75 
Q 45.40625 17.390625 45.40625 27.296875 
Q 45.40625 37.203125 41.296875 42.84375 
Q 37.203125 48.484375 30.078125 48.484375 
Q 22.953125 48.484375 18.875 42.84375 
Q 14.796875 37.203125 14.796875 27.296875 
z
" id="DejaVuSans-100"/>
     <path d="M 9.8125 72.90625 
L 24.515625 72.90625 
L 43.109375 23.296875 
L 61.8125 72.90625 
L 76.515625 72.90625 
L 76.515625 0 
L 66.890625 0 
L 66.890625 64.015625 
L 48.09375 14.015625 
L 38.1875 14.015625 
L 19.390625 64.015625 
L 19.390625 0 
L 9.8125 0 
z
" id="DejaVuSans-77"/>
     <path d="M 8.5 21.578125 
L 8.5 54.6875 
L 17.484375 54.6875 
L 17.484375 21.921875 
Q 17.484375 14.15625 20.5 10.265625 
Q 23.53125 6.390625 29.59375 6.390625 
Q 36.859375 6.390625 41.078125 11.03125 
Q 45.3125 15.671875 45.3125 23.6875 
L 45.3125 54.6875 
L 54.296875 54.6875 
L 54.296875 0 
L 45.3125 0 
L 45.3125 8.40625 
Q 42.046875 3.421875 37.71875 1 
Q 33.40625 -1.421875 27.6875 -1.421875 
Q 18.265625 -1.421875 13.375 4.4375 
Q 8.5 10.296875 8.5 21.578125 
z
M 31.109375 56 
z
" id="DejaVuSans-117"/>
     <path d="M 52 44.1875 
Q 55.375 50.25 60.0625 53.125 
Q 64.75 56 71.09375 56 
Q 79.640625 56 84.28125 50.015625 
Q 88.921875 44.046875 88.921875 33.015625 
L 88.921875 0 
L 79.890625 0 
L 79.890625 32.71875 
Q 79.890625 40.578125 77.09375 44.375 
Q 74.3125 48.1875 68.609375 48.1875 
Q 61.625 48.1875 57.5625 43.546875 
Q 53.515625 38.921875 53.515625 30.90625 
L 53.515625 0 
L 44.484375 0 
L 44.484375 32.71875 
Q 44.484375 40.625 41.703125 44.40625 
Q 38.921875 48.1875 33.109375 48.1875 
Q 26.21875 48.1875 22.15625 43.53125 
Q 18.109375 38.875 18.109375 30.90625 
L 18.109375 0 
L 9.078125 0 
L 9.078125 54.6875 
L 18.109375 54.6875 
L 18.109375 46.1875 
Q 21.1875 51.21875 25.484375 53.609375 
Q 29.78125 56 35.6875 56 
Q 41.65625 56 45.828125 52.96875 
Q 50 49.953125 52 44.1875 
z
" id="DejaVuSans-109"/>
    </defs>
    <g transform="translate(158.410109 230.912152)scale(0.07 -0.07)">
     <use xlink:href="#DejaVuSans-65"/>
     <use x="68.408203" xlink:href="#DejaVuSans-108"/>
     <use x="96.191406" xlink:href="#DejaVuSans-112"/>
     <use x="159.667969" xlink:href="#DejaVuSans-104"/>
     <use x="223.046875" xlink:href="#DejaVuSans-97"/>
     <use x="284.326172" xlink:href="#DejaVuSans-70"/>
     <use x="341.798828" xlink:href="#DejaVuSans-111"/>
     <use x="402.980469" xlink:href="#DejaVuSans-108"/>
     <use x="430.763672" xlink:href="#DejaVuSans-100"/>
     <use x="494.240234" xlink:href="#DejaVuSans-45"/>
     <use x="530.324219" xlink:href="#DejaVuSans-77"/>
     <use x="616.603516" xlink:href="#DejaVuSans-117"/>
     <use x="679.982422" xlink:href="#DejaVuSans-108"/>
     <use x="707.765625" xlink:href="#DejaVuSans-116"/>
     <use x="746.974609" xlink:href="#DejaVuSans-105"/>
     <use x="774.757812" xlink:href="#DejaVuSans-109"/>
     <use x="872.169922" xlink:href="#DejaVuSans-101"/>
     <use x="933.693359" xlink:href="#DejaVuSans-114"/>
    </g>
    <!-- + DiscoTope -->
    <defs>
     <path d="M 46 62.703125 
L 46 35.5 
L 73.1875 35.5 
L 73.1875 27.203125 
L 46 27.203125 
L 46 0 
L 37.796875 0 
L 37.796875 27.203125 
L 10.59375 27.203125 
L 10.59375 35.5 
L 37.796875 35.5 
L 37.796875 62.703125 
z
" id="DejaVuSans-43"/>
     <path d="M 48.78125 52.59375 
L 48.78125 44.1875 
Q 44.96875 46.296875 41.140625 47.34375 
Q 37.3125 48.390625 33.40625 48.390625 
Q 24.65625 48.390625 19.8125 42.84375 
Q 14.984375 37.3125 14.984375 27.296875 
Q 14.984375 17.28125 19.8125 11.734375 
Q 24.65625 6.203125 33.40625 6.203125 
Q 37.3125 6.203125 41.140625 7.25 
Q 44.96875 8.296875 48.78125 10.40625 
L 48.78125 2.09375 
Q 45.015625 0.34375 40.984375 -0.53125 
Q 36.96875 -1.421875 32.421875 -1.421875 
Q 20.0625 -1.421875 12.78125 6.34375 
Q 5.515625 14.109375 5.515625 27.296875 
Q 5.515625 40.671875 12.859375 48.328125 
Q 20.21875 56 33.015625 56 
Q 37.15625 56 41.109375 55.140625 
Q 45.0625 54.296875 48.78125 52.59375 
z
" id="DejaVuSans-99"/>
     <path d="M -0.296875 72.90625 
L 61.375 72.90625 
L 61.375 64.59375 
L 35.5 64.59375 
L 35.5 0 
L 25.59375 0 
L 25.59375 64.59375 
L -0.296875 64.59375 
z
" id="DejaVuSans-84"/>
    </defs>
    <g transform="translate(170.280578 238.750621)scale(0.07 -0.07)">
     <use xlink:href="#DejaVuSans-43"/>
     <use x="83.789062" xlink:href="#DejaVuSans-32"/>
     <use x="115.576172" xlink:href="#DejaVuSans-68"/>
     <use x="192.578125" xlink:href="#DejaVuSans-105"/>
     <use x="220.361328" xlink:href="#DejaVuSans-115"/>
     <use x="272.460938" xlink:href="#DejaVuSans-99"/>
     <use x="327.441406" xlink:href="#DejaVuSans-111"/>
     <use x="388.623047" xlink:href="#DejaVuSans-84"/>
     <use x="449.441406" xlink:href="#DejaVuSans-111"/>
     <use x="510.623047" xlink:href="#DejaVuSans-112"/>
     <use x="574.099609" xlink:href="#DejaVuSans-101"/>
    </g>
    <!-- B-cell scoring -->
    <defs>
     <path d="M 19.671875 34.8125 
L 19.671875 8.109375 
L 35.5 8.109375 
Q 43.453125 8.109375 47.28125 11.40625 
Q 51.125 14.703125 51.125 21.484375 
Q 51.125 28.328125 47.28125 31.5625 
Q 43.453125 34.8125 35.5 34.8125 
z
M 19.671875 64.796875 
L 19.671875 42.828125 
L 34.28125 42.828125 
Q 41.5 42.828125 45.03125 45.53125 
Q 48.578125 48.25 48.578125 53.8125 
Q 48.578125 59.328125 45.03125 62.0625 
Q 41.5 64.796875 34.28125 64.796875 
z
M 9.8125 72.90625 
L 35.015625 72.90625 
Q 46.296875 72.90625 52.390625 68.21875 
Q 58.5 63.53125 58.5 54.890625 
Q 58.5 48.1875 55.375 44.234375 
Q 52.25 40.28125 46.1875 39.3125 
Q 53.46875 37.75 57.5 32.78125 
Q 61.53125 27.828125 61.53125 20.40625 
Q 61.53125 10.640625 54.890625 5.3125 
Q 48.25 0 35.984375 0 
L 9.8125 0 
z
" id="DejaVuSans-66"/>
     <path d="M 45.40625 27.984375 
Q 45.40625 37.75 41.375 43.109375 
Q 37.359375 48.484375 30.078125 48.484375 
Q 22.859375 48.484375 18.828125 43.109375 
Q 14.796875 37.75 14.796875 27.984375 
Q 14.796875 18.265625 18.828125 12.890625 
Q 22.859375 7.515625 30.078125 7.515625 
Q 37.359375 7.515625 41.375 12.890625 
Q 45.40625 18.265625 45.40625 27.984375 
z
M 54.390625 6.78125 
Q 54.390625 -7.171875 48.1875 -13.984375 
Q 42 -20.796875 29.203125 -20.796875 
Q 24.46875 -20.796875 20.265625 -20.09375 
Q 16.0625 -19.390625 12.109375 -17.921875 
L 12.109375 -9.1875 
Q 16.0625 -11.328125 19.921875 -12.34375 
Q 23.78125 -13.375 27.78125 -13.375 
Q 36.625 -13.375 41.015625 -8.765625 
Q 45.40625 -4.15625 45.40625 5.171875 
L 45.40625 9.625 
Q 42.625 4.78125 38.28125 2.390625 
Q 33.9375 0 27.875 0 
Q 17.828125 0 11.671875 7.65625 
Q 5.515625 15.328125 5.515625 27.984375 
Q 5.515625 40.671875 11.671875 48.328125 
Q 17.828125 56 27.875 56 
Q 33.9375 56 38.28125 53.609375 
Q 42.625 51.21875 45.40625 46.390625 
L 45.40625 54.6875 
L 54.390625 54.6875 
z
" id="DejaVuSans-103"/>
    </defs>
    <g transform="translate(168.988312 246.589089)scale(0.07 -0.07)">
     <use xlink:href="#DejaVuSans-66"/>
     <use x="68.603516" xlink:href="#DejaVuSans-45"/>
     <use x="104.6875" xlink:href="#DejaVuSans-99"/>
     <use x="159.667969" xlink:href="#DejaVuSans-101"/>
     <use x="221.191406" xlink:href="#DejaVuSans-108"/>
     <use x="248.974609" xlink:href="#DejaVuSans-108"/>
     <use x="276.757812" xlink:href="#DejaVuSans-32"/>
     <use x="308.544922" xlink:href="#DejaVuSans-115"/>
     <use x="360.644531" xlink:href="#DejaVuSans-99"/>
     <use x="415.625" xlink:href="#DejaVuSans-111"/>
     <use x="476.806641" xlink:href="#DejaVuSans-114"/>
     <use x="517.919922" xlink:href="#DejaVuSans-105"/>
     <use x="545.703125" xlink:href="#DejaVuSans-110"/>
     <use x="609.082031" xlink:href="#DejaVuSans-103"/>
    </g>
    <!-- (EpiDope) -->
    <defs>
     <path d="M 31 75.875 
Q 24.46875 64.65625 21.28125 53.65625 
Q 18.109375 42.671875 18.109375 31.390625 
Q 18.109375 20.125 21.3125 9.0625 
Q 24.515625 -2 31 -13.1875 
L 23.1875 -13.1875 
Q 15.875 -1.703125 12.234375 9.375 
Q 8.59375 20.453125 8.59375 31.390625 
Q 8.59375 42.28125 12.203125 53.3125 
Q 15.828125 64.359375 23.1875 75.875 
z
" id="DejaVuSans-40"/>
     <path d="M 8.015625 75.875 
L 15.828125 75.875 
Q 23.140625 64.359375 26.78125 53.3125 
Q 30.421875 42.28125 30.421875 31.390625 
Q 30.421875 20.453125 26.78125 9.375 
Q 23.140625 -1.703125 15.828125 -13.1875 
L 8.015625 -13.1875 
Q 14.5 -2 17.703125 9.0625 
Q 20.90625 20.125 20.90625 31.390625 
Q 20.90625 42.671875 17.703125 53.65625 
Q 14.5 64.65625 8.015625 75.875 
z
" id="DejaVuSans-41"/>
    </defs>
    <g transform="translate(175.178937 254.427558)scale(0.07 -0.07)">
     <use xlink:href="#DejaVuSans-40"/>
     <use x="39.013672" xlink:href="#DejaVuSans-69"/>
     <use x="102.197266" xlink:href="#DejaVuSans-112"/>
     <use x="165.673828" xlink:href="#DejaVuSans-105"/>
     <use x="193.457031" xlink:href="#DejaVuSans-68"/>
     <use x="270.458984" xlink:href="#DejaVuSans-111"/>
     <use x="331.640625" xlink:href="#DejaVuSans-112"/>
     <use x="395.117188" xlink:href="#DejaVuSans-101"/>
     <use x="456.640625" xlink:href="#DejaVuSans-41"/>
    </g>
   </g>
   <g id="text_5">
    <!-- AXIS 2 -->
    <defs>
     <path d="M 28.8125 13.8125 
L 60.890625 13.8125 
L 60.890625 0 
L 7.90625 0 
L 7.90625 13.8125 
L 34.515625 37.3125 
Q 38.09375 40.53125 39.796875 43.609375 
Q 41.5 46.6875 41.5 50 
Q 41.5 55.125 38.0625 58.25 
Q 34.625 61.375 28.90625 61.375 
Q 24.515625 61.375 19.28125 59.5 
Q 14.0625 57.625 8.109375 53.90625 
L 8.109375 69.921875 
Q 14.453125 72.015625 20.65625 73.109375 
Q 26.859375 74.21875 32.8125 74.21875 
Q 45.90625 74.21875 53.15625 68.453125 
Q 60.40625 62.703125 60.40625 52.390625 
Q 60.40625 46.4375 57.328125 41.28125 
Q 54.25 36.140625 44.390625 27.484375 
z
" id="DejaVuSans-Bold-50"/>
    </defs>
    <g transform="translate(346.28425 192.565227)scale(0.08 -0.08)">
     <use xlink:href="#DejaVuSans-Bold-65"/>
     <use x="77.392578" xlink:href="#DejaVuSans-Bold-88"/>
     <use x="154.492188" xlink:href="#DejaVuSans-Bold-73"/>
     <use x="191.699219" xlink:href="#DejaVuSans-Bold-83"/>
     <use x="263.720703" xlink:href="#DejaVuSans-Bold-32"/>
     <use x="298.535156" xlink:href="#DejaVuSans-Bold-50"/>
    </g>
    <!-- EQUITY -->
    <defs>
     <path d="M 44.484375 -1.3125 
L 43.015625 -1.3125 
Q 25 -1.3125 14.984375 8.640625 
Q 4.984375 18.609375 4.984375 36.375 
Q 4.984375 54.109375 14.96875 64.15625 
Q 24.953125 74.21875 42.484375 74.21875 
Q 60.203125 74.21875 70.09375 64.25 
Q 79.984375 54.296875 79.984375 36.375 
Q 79.984375 24.078125 74.734375 15.1875 
Q 69.484375 6.296875 59.625 1.8125 
L 74.3125 -14.59375 
L 56.390625 -14.59375 
z
M 42.484375 60.59375 
Q 33.890625 60.59375 29.15625 54.25 
Q 24.421875 47.90625 24.421875 36.375 
Q 24.421875 24.65625 29.046875 18.421875 
Q 33.6875 12.203125 42.484375 12.203125 
Q 51.125 12.203125 55.859375 18.546875 
Q 60.59375 24.90625 60.59375 36.375 
Q 60.59375 47.90625 55.859375 54.25 
Q 51.125 60.59375 42.484375 60.59375 
z
" id="DejaVuSans-Bold-81"/>
    </defs>
    <g transform="translate(344.513625 201.523477)scale(0.08 -0.08)">
     <use xlink:href="#DejaVuSans-Bold-69"/>
     <use x="68.310547" xlink:href="#DejaVuSans-Bold-81"/>
     <use x="153.320312" xlink:href="#DejaVuSans-Bold-85"/>
     <use x="234.521484" xlink:href="#DejaVuSans-Bold-73"/>
     <use x="271.728516" xlink:href="#DejaVuSans-Bold-84"/>
     <use x="339.941406" xlink:href="#DejaVuSans-Bold-89"/>
    </g>
   </g>
   <g id="text_6">
    <!-- NetMHCpan I + II -->
    <defs>
     <path d="M 9.8125 72.90625 
L 19.671875 72.90625 
L 19.671875 43.015625 
L 55.515625 43.015625 
L 55.515625 72.90625 
L 65.375 72.90625 
L 65.375 0 
L 55.515625 0 
L 55.515625 34.71875 
L 19.671875 34.71875 
L 19.671875 0 
L 9.8125 0 
z
" id="DejaVuSans-72"/>
     <path d="M 64.40625 67.28125 
L 64.40625 56.890625 
Q 59.421875 61.53125 53.78125 63.8125 
Q 48.140625 66.109375 41.796875 66.109375 
Q 29.296875 66.109375 22.65625 58.46875 
Q 16.015625 50.828125 16.015625 36.375 
Q 16.015625 21.96875 22.65625 14.328125 
Q 29.296875 6.6875 41.796875 6.6875 
Q 48.140625 6.6875 53.78125 8.984375 
Q 59.421875 11.28125 64.40625 15.921875 
L 64.40625 5.609375 
Q 59.234375 2.09375 53.4375 0.328125 
Q 47.65625 -1.421875 41.21875 -1.421875 
Q 24.65625 -1.421875 15.125 8.703125 
Q 5.609375 18.84375 5.609375 36.375 
Q 5.609375 53.953125 15.125 64.078125 
Q 24.65625 74.21875 41.21875 74.21875 
Q 47.75 74.21875 53.53125 72.484375 
Q 59.328125 70.75 64.40625 67.28125 
z
" id="DejaVuSans-67"/>
     <path d="M 9.8125 72.90625 
L 19.671875 72.90625 
L 19.671875 0 
L 9.8125 0 
z
" id="DejaVuSans-73"/>
    </defs>
    <g transform="translate(330.815578 230.912152)scale(0.07 -0.07)">
     <use xlink:href="#DejaVuSans-78"/>
     <use x="74.804688" xlink:href="#DejaVuSans-101"/>
     <use x="136.328125" xlink:href="#DejaVuSans-116"/>
     <use x="175.537109" xlink:href="#DejaVuSans-77"/>
     <use x="261.816406" xlink:href="#DejaVuSans-72"/>
     <use x="337.011719" xlink:href="#DejaVuSans-67"/>
     <use x="406.835938" xlink:href="#DejaVuSans-112"/>
     <use x="470.3125" xlink:href="#DejaVuSans-97"/>
     <use x="531.591797" xlink:href="#DejaVuSans-110"/>
     <use x="594.970703" xlink:href="#DejaVuSans-32"/>
     <use x="626.757812" xlink:href="#DejaVuSans-73"/>
     <use x="656.25" xlink:href="#DejaVuSans-32"/>
     <use x="688.037109" xlink:href="#DejaVuSans-43"/>
     <use x="771.826172" xlink:href="#DejaVuSans-32"/>
     <use x="803.613281" xlink:href="#DejaVuSans-73"/>
     <use x="833.105469" xlink:href="#DejaVuSans-73"/>
    </g>
    <!-- IEDB Population Cov -->
    <defs>
     <path d="M 19.671875 64.796875 
L 19.671875 37.40625 
L 32.078125 37.40625 
Q 38.96875 37.40625 42.71875 40.96875 
Q 46.484375 44.53125 46.484375 51.125 
Q 46.484375 57.671875 42.71875 61.234375 
Q 38.96875 64.796875 32.078125 64.796875 
z
M 9.8125 72.90625 
L 32.078125 72.90625 
Q 44.34375 72.90625 50.609375 67.359375 
Q 56.890625 61.8125 56.890625 51.125 
Q 56.890625 40.328125 50.609375 34.8125 
Q 44.34375 29.296875 32.078125 29.296875 
L 19.671875 29.296875 
L 19.671875 0 
L 9.8125 0 
z
" id="DejaVuSans-80"/>
     <path d="M 2.984375 54.6875 
L 12.5 54.6875 
L 29.59375 8.796875 
L 46.6875 54.6875 
L 56.203125 54.6875 
L 35.6875 0 
L 23.484375 0 
z
" id="DejaVuSans-118"/>
    </defs>
    <g transform="translate(325.274094 238.750621)scale(0.07 -0.07)">
     <use xlink:href="#DejaVuSans-73"/>
     <use x="29.492188" xlink:href="#DejaVuSans-69"/>
     <use x="92.675781" xlink:href="#DejaVuSans-68"/>
     <use x="169.677734" xlink:href="#DejaVuSans-66"/>
     <use x="238.28125" xlink:href="#DejaVuSans-32"/>
     <use x="270.068359" xlink:href="#DejaVuSans-80"/>
     <use x="330.324219" xlink:href="#DejaVuSans-111"/>
     <use x="391.505859" xlink:href="#DejaVuSans-112"/>
     <use x="454.982422" xlink:href="#DejaVuSans-117"/>
     <use x="518.361328" xlink:href="#DejaVuSans-108"/>
     <use x="546.144531" xlink:href="#DejaVuSans-97"/>
     <use x="607.423828" xlink:href="#DejaVuSans-116"/>
     <use x="646.632812" xlink:href="#DejaVuSans-105"/>
     <use x="674.416016" xlink:href="#DejaVuSans-111"/>
     <use x="735.597656" xlink:href="#DejaVuSans-110"/>
     <use x="798.976562" xlink:href="#DejaVuSans-32"/>
     <use x="830.763672" xlink:href="#DejaVuSans-67"/>
     <use x="900.587891" xlink:href="#DejaVuSans-111"/>
     <use x="961.769531" xlink:href="#DejaVuSans-118"/>
    </g>
    <!-- (Brazil, SE Asia, -->
    <defs>
     <path d="M 5.515625 54.6875 
L 48.1875 54.6875 
L 48.1875 46.484375 
L 14.40625 7.171875 
L 48.1875 7.171875 
L 48.1875 0 
L 4.296875 0 
L 4.296875 8.203125 
L 38.09375 47.515625 
L 5.515625 47.515625 
z
" id="DejaVuSans-122"/>
     <path d="M 11.71875 12.40625 
L 22.015625 12.40625 
L 22.015625 4 
L 14.015625 -11.625 
L 7.71875 -11.625 
L 11.71875 4 
z
" id="DejaVuSans-44"/>
     <path d="M 53.515625 70.515625 
L 53.515625 60.890625 
Q 47.90625 63.578125 42.921875 64.890625 
Q 37.9375 66.21875 33.296875 66.21875 
Q 25.25 66.21875 20.875 63.09375 
Q 16.5 59.96875 16.5 54.203125 
Q 16.5 49.359375 19.40625 46.890625 
Q 22.3125 44.4375 30.421875 42.921875 
L 36.375 41.703125 
Q 47.40625 39.59375 52.65625 34.296875 
Q 57.90625 29 57.90625 20.125 
Q 57.90625 9.515625 50.796875 4.046875 
Q 43.703125 -1.421875 29.984375 -1.421875 
Q 24.8125 -1.421875 18.96875 -0.25 
Q 13.140625 0.921875 6.890625 3.21875 
L 6.890625 13.375 
Q 12.890625 10.015625 18.65625 8.296875 
Q 24.421875 6.59375 29.984375 6.59375 
Q 38.421875 6.59375 43.015625 9.90625 
Q 47.609375 13.234375 47.609375 19.390625 
Q 47.609375 24.75 44.3125 27.78125 
Q 41.015625 30.8125 33.5 32.328125 
L 27.484375 33.5 
Q 16.453125 35.6875 11.515625 40.375 
Q 6.59375 45.0625 6.59375 53.421875 
Q 6.59375 63.09375 13.40625 68.65625 
Q 20.21875 74.21875 32.171875 74.21875 
Q 37.3125 74.21875 42.625 73.28125 
Q 47.953125 72.359375 53.515625 70.515625 
z
" id="DejaVuSans-83"/>
    </defs>
    <g transform="translate(333.658234 246.589089)scale(0.07 -0.07)">
     <use xlink:href="#DejaVuSans-40"/>
     <use x="39.013672" xlink:href="#DejaVuSans-66"/>
     <use x="107.617188" xlink:href="#DejaVuSans-114"/>
     <use x="148.730469" xlink:href="#DejaVuSans-97"/>
     <use x="210.009766" xlink:href="#DejaVuSans-122"/>
     <use x="262.5" xlink:href="#DejaVuSans-105"/>
     <use x="290.283203" xlink:href="#DejaVuSans-108"/>
     <use x="318.066406" xlink:href="#DejaVuSans-44"/>
     <use x="349.853516" xlink:href="#DejaVuSans-32"/>
     <use x="381.640625" xlink:href="#DejaVuSans-83"/>
     <use x="445.117188" xlink:href="#DejaVuSans-69"/>
     <use x="508.300781" xlink:href="#DejaVuSans-32"/>
     <use x="540.087891" xlink:href="#DejaVuSans-65"/>
     <use x="608.496094" xlink:href="#DejaVuSans-115"/>
     <use x="660.595703" xlink:href="#DejaVuSans-105"/>
     <use x="688.378906" xlink:href="#DejaVuSans-97"/>
     <use x="749.658203" xlink:href="#DejaVuSans-44"/>
    </g>
    <!-- Africa, India) -->
    <defs>
     <path d="M 37.109375 75.984375 
L 37.109375 68.5 
L 28.515625 68.5 
Q 23.6875 68.5 21.796875 66.546875 
Q 19.921875 64.59375 19.921875 59.515625 
L 19.921875 54.6875 
L 34.71875 54.6875 
L 34.71875 47.703125 
L 19.921875 47.703125 
L 19.921875 0 
L 10.890625 0 
L 10.890625 47.703125 
L 2.296875 47.703125 
L 2.296875 54.6875 
L 10.890625 54.6875 
L 10.890625 58.5 
Q 10.890625 67.625 15.140625 71.796875 
Q 19.390625 75.984375 28.609375 75.984375 
z
" id="DejaVuSans-102"/>
    </defs>
    <g transform="translate(338.722844 254.427558)scale(0.07 -0.07)">
     <use xlink:href="#DejaVuSans-65"/>
     <use x="68.361328" xlink:href="#DejaVuSans-102"/>
     <use x="103.566406" xlink:href="#DejaVuSans-114"/>
     <use x="144.679688" xlink:href="#DejaVuSans-105"/>
     <use x="172.462891" xlink:href="#DejaVuSans-99"/>
     <use x="227.443359" xlink:href="#DejaVuSans-97"/>
     <use x="288.722656" xlink:href="#DejaVuSans-44"/>
     <use x="320.509766" xlink:href="#DejaVuSans-32"/>
     <use x="352.296875" xlink:href="#DejaVuSans-73"/>
     <use x="381.789062" xlink:href="#DejaVuSans-110"/>
     <use x="445.167969" xlink:href="#DejaVuSans-100"/>
     <use x="508.644531" xlink:href="#DejaVuSans-105"/>
     <use x="536.427734" xlink:href="#DejaVuSans-97"/>
     <use x="597.707031" xlink:href="#DejaVuSans-41"/>
    </g>
   </g>
   <g id="text_7">
    <!-- AXIS 3 -->
    <defs>
     <path d="M 46.578125 39.3125 
Q 53.953125 37.40625 57.78125 32.6875 
Q 61.625 27.984375 61.625 20.703125 
Q 61.625 9.859375 53.3125 4.21875 
Q 45.015625 -1.421875 29.109375 -1.421875 
Q 23.484375 -1.421875 17.84375 -0.515625 
Q 12.203125 0.390625 6.6875 2.203125 
L 6.6875 16.703125 
Q 11.96875 14.0625 17.15625 12.71875 
Q 22.359375 11.375 27.390625 11.375 
Q 34.859375 11.375 38.84375 13.953125 
Q 42.828125 16.546875 42.828125 21.390625 
Q 42.828125 26.375 38.75 28.9375 
Q 34.671875 31.5 26.703125 31.5 
L 19.1875 31.5 
L 19.1875 43.609375 
L 27.09375 43.609375 
Q 34.1875 43.609375 37.640625 45.828125 
Q 41.109375 48.046875 41.109375 52.59375 
Q 41.109375 56.78125 37.734375 59.078125 
Q 34.375 61.375 28.21875 61.375 
Q 23.6875 61.375 19.046875 60.34375 
Q 14.40625 59.328125 9.8125 57.328125 
L 9.8125 71.09375 
Q 15.375 72.65625 20.84375 73.4375 
Q 26.3125 74.21875 31.59375 74.21875 
Q 45.796875 74.21875 52.84375 69.546875 
Q 59.90625 64.890625 59.90625 55.515625 
Q 59.90625 49.125 56.53125 45.046875 
Q 53.171875 40.96875 46.578125 39.3125 
z
" id="DejaVuSans-Bold-51"/>
    </defs>
    <g transform="translate(514.76425 135.188427)scale(0.08 -0.08)">
     <use xlink:href="#DejaVuSans-Bold-65"/>
     <use x="77.392578" xlink:href="#DejaVuSans-Bold-88"/>
     <use x="154.492188" xlink:href="#DejaVuSans-Bold-73"/>
     <use x="191.699219" xlink:href="#DejaVuSans-Bold-83"/>
     <use x="263.720703" xlink:href="#DejaVuSans-Bold-32"/>
     <use x="298.535156" xlink:href="#DejaVuSans-Bold-51"/>
    </g>
    <!-- TIME (post-trial) -->
    <defs>
     <path d="M 37.703125 -13.1875 
L 23.1875 -13.1875 
Q 15.71875 -1.125 12.15625 9.734375 
Q 8.59375 20.609375 8.59375 31.296875 
Q 8.59375 42 12.171875 52.953125 
Q 15.765625 63.921875 23.1875 75.875 
L 37.703125 75.875 
Q 31.453125 64.3125 28.328125 53.25 
Q 25.203125 42.1875 25.203125 31.390625 
Q 25.203125 20.609375 28.296875 9.515625 
Q 31.390625 -1.5625 37.703125 -13.1875 
z
" id="DejaVuSans-Bold-40"/>
     <path d="M 25.875 7.90625 
L 25.875 -20.796875 
L 8.40625 -20.796875 
L 8.40625 54.6875 
L 25.875 54.6875 
L 25.875 46.6875 
Q 29.5 51.46875 33.890625 53.734375 
Q 38.28125 56 44 56 
Q 54.109375 56 60.59375 47.96875 
Q 67.09375 39.9375 67.09375 27.296875 
Q 67.09375 14.65625 60.59375 6.609375 
Q 54.109375 -1.421875 44 -1.421875 
Q 38.28125 -1.421875 33.890625 0.84375 
Q 29.5 3.125 25.875 7.90625 
z
M 37.5 43.3125 
Q 31.890625 43.3125 28.875 39.1875 
Q 25.875 35.0625 25.875 27.296875 
Q 25.875 19.53125 28.875 15.40625 
Q 31.890625 11.28125 37.5 11.28125 
Q 43.109375 11.28125 46.0625 15.375 
Q 49.03125 19.484375 49.03125 27.296875 
Q 49.03125 35.109375 46.0625 39.203125 
Q 43.109375 43.3125 37.5 43.3125 
z
" id="DejaVuSans-Bold-112"/>
     <path d="M 34.421875 43.5 
Q 28.609375 43.5 25.5625 39.328125 
Q 22.515625 35.15625 22.515625 27.296875 
Q 22.515625 19.4375 25.5625 15.25 
Q 28.609375 11.078125 34.421875 11.078125 
Q 40.140625 11.078125 43.15625 15.25 
Q 46.1875 19.4375 46.1875 27.296875 
Q 46.1875 35.15625 43.15625 39.328125 
Q 40.140625 43.5 34.421875 43.5 
z
M 34.421875 56 
Q 48.53125 56 56.46875 48.375 
Q 64.40625 40.765625 64.40625 27.296875 
Q 64.40625 13.8125 56.46875 6.1875 
Q 48.53125 -1.421875 34.421875 -1.421875 
Q 20.265625 -1.421875 12.28125 6.1875 
Q 4.296875 13.8125 4.296875 27.296875 
Q 4.296875 40.765625 12.28125 48.375 
Q 20.265625 56 34.421875 56 
z
" id="DejaVuSans-Bold-111"/>
     <path d="M 51.125 52.984375 
L 51.125 39.703125 
Q 45.515625 42.046875 40.28125 43.21875 
Q 35.0625 44.390625 30.421875 44.390625 
Q 25.4375 44.390625 23.015625 43.140625 
Q 20.609375 41.890625 20.609375 39.3125 
Q 20.609375 37.203125 22.4375 36.078125 
Q 24.265625 34.96875 29 34.421875 
L 32.078125 33.984375 
Q 45.515625 32.28125 50.140625 28.375 
Q 54.78125 24.46875 54.78125 16.109375 
Q 54.78125 7.375 48.328125 2.96875 
Q 41.890625 -1.421875 29.109375 -1.421875 
Q 23.6875 -1.421875 17.890625 -0.5625 
Q 12.109375 0.296875 6 2 
L 6 15.28125 
Q 11.234375 12.75 16.71875 11.46875 
Q 22.21875 10.203125 27.875 10.203125 
Q 33.015625 10.203125 35.59375 11.609375 
Q 38.1875 13.03125 38.1875 15.828125 
Q 38.1875 18.171875 36.40625 19.3125 
Q 34.625 20.453125 29.296875 21.09375 
L 26.21875 21.484375 
Q 14.546875 22.953125 9.859375 26.90625 
Q 5.171875 30.859375 5.171875 38.921875 
Q 5.171875 47.609375 11.125 51.796875 
Q 17.09375 56 29.390625 56 
Q 34.234375 56 39.546875 55.265625 
Q 44.875 54.546875 51.125 52.984375 
z
" id="DejaVuSans-Bold-115"/>
     <path d="M 27.484375 70.21875 
L 27.484375 54.6875 
L 45.515625 54.6875 
L 45.515625 42.1875 
L 27.484375 42.1875 
L 27.484375 19 
Q 27.484375 15.1875 29 13.84375 
Q 30.515625 12.5 35.015625 12.5 
L 44 12.5 
L 44 0 
L 29 0 
Q 18.65625 0 14.328125 4.3125 
Q 10.015625 8.640625 10.015625 19 
L 10.015625 42.1875 
L 1.3125 42.1875 
L 1.3125 54.6875 
L 10.015625 54.6875 
L 10.015625 70.21875 
z
" id="DejaVuSans-Bold-116"/>
     <path d="M 5.421875 35.890625 
L 36.078125 35.890625 
L 36.078125 21.6875 
L 5.421875 21.6875 
z
" id="DejaVuSans-Bold-45"/>
     <path d="M 49.03125 39.796875 
Q 46.734375 40.875 44.453125 41.375 
Q 42.1875 41.890625 39.890625 41.890625 
Q 33.15625 41.890625 29.515625 37.5625 
Q 25.875 33.25 25.875 25.203125 
L 25.875 0 
L 8.40625 0 
L 8.40625 54.6875 
L 25.875 54.6875 
L 25.875 45.703125 
Q 29.25 51.078125 33.609375 53.53125 
Q 37.984375 56 44.09375 56 
Q 44.96875 56 45.984375 55.921875 
Q 47.015625 55.859375 48.96875 55.609375 
z
" id="DejaVuSans-Bold-114"/>
     <path d="M 8.40625 54.6875 
L 25.875 54.6875 
L 25.875 0 
L 8.40625 0 
z
M 8.40625 75.984375 
L 25.875 75.984375 
L 25.875 61.71875 
L 8.40625 61.71875 
z
" id="DejaVuSans-Bold-105"/>
     <path d="M 32.90625 24.609375 
Q 27.4375 24.609375 24.671875 22.75 
Q 21.921875 20.90625 21.921875 17.28125 
Q 21.921875 13.96875 24.140625 12.078125 
Q 26.375 10.203125 30.328125 10.203125 
Q 35.25 10.203125 38.625 13.734375 
Q 42 17.28125 42 22.609375 
L 42 24.609375 
z
M 59.625 31.203125 
L 59.625 0 
L 42 0 
L 42 8.109375 
Q 38.484375 3.125 34.078125 0.84375 
Q 29.6875 -1.421875 23.390625 -1.421875 
Q 14.890625 -1.421875 9.59375 3.53125 
Q 4.296875 8.5 4.296875 16.40625 
Q 4.296875 26.03125 10.90625 30.515625 
Q 17.53125 35.015625 31.6875 35.015625 
L 42 35.015625 
L 42 36.375 
Q 42 40.53125 38.71875 42.453125 
Q 35.453125 44.390625 28.515625 44.390625 
Q 22.90625 44.390625 18.0625 43.265625 
Q 13.234375 42.140625 9.078125 39.890625 
L 9.078125 53.21875 
Q 14.703125 54.59375 20.359375 55.296875 
Q 26.03125 56 31.6875 56 
Q 46.484375 56 53.046875 50.171875 
Q 59.625 44.34375 59.625 31.203125 
z
" id="DejaVuSans-Bold-97"/>
     <path d="M 8.40625 75.984375 
L 25.875 75.984375 
L 25.875 0 
L 8.40625 0 
z
" id="DejaVuSans-Bold-108"/>
     <path d="M 8.015625 -13.1875 
Q 14.265625 -1.5625 17.390625 9.515625 
Q 20.515625 20.609375 20.515625 31.390625 
Q 20.515625 42.1875 17.390625 53.25 
Q 14.265625 64.3125 8.015625 75.875 
L 22.515625 75.875 
Q 29.9375 63.921875 33.515625 52.953125 
Q 37.109375 42 37.109375 31.296875 
Q 37.109375 20.609375 33.546875 9.734375 
Q 29.984375 -1.125 22.515625 -13.1875 
z
" id="DejaVuSans-Bold-41"/>
    </defs>
    <g transform="translate(492.61925 144.146677)scale(0.08 -0.08)">
     <use xlink:href="#DejaVuSans-Bold-84"/>
     <use x="68.212891" xlink:href="#DejaVuSans-Bold-73"/>
     <use x="105.419922" xlink:href="#DejaVuSans-Bold-77"/>
     <use x="204.931641" xlink:href="#DejaVuSans-Bold-69"/>
     <use x="273.242188" xlink:href="#DejaVuSans-Bold-32"/>
     <use x="308.056641" xlink:href="#DejaVuSans-Bold-40"/>
     <use x="353.759766" xlink:href="#DejaVuSans-Bold-112"/>
     <use x="425.341797" xlink:href="#DejaVuSans-Bold-111"/>
     <use x="494.042969" xlink:href="#DejaVuSans-Bold-115"/>
     <use x="553.564453" xlink:href="#DejaVuSans-Bold-116"/>
     <use x="601.367188" xlink:href="#DejaVuSans-Bold-45"/>
     <use x="642.871094" xlink:href="#DejaVuSans-Bold-116"/>
     <use x="690.673828" xlink:href="#DejaVuSans-Bold-114"/>
     <use x="739.990234" xlink:href="#DejaVuSans-Bold-105"/>
     <use x="774.267578" xlink:href="#DejaVuSans-Bold-97"/>
     <use x="841.748047" xlink:href="#DejaVuSans-Bold-108"/>
     <use x="876.025391" xlink:href="#DejaVuSans-Bold-41"/>
    </g>
   </g>
   <g id="text_8">
    <!-- MBC Hill diversity -->
    <g transform="translate(498.751984 177.454586)scale(0.07 -0.07)">
     <use xlink:href="#DejaVuSans-77"/>
     <use x="86.279297" xlink:href="#DejaVuSans-66"/>
     <use x="154.867188" xlink:href="#DejaVuSans-67"/>
     <use x="224.691406" xlink:href="#DejaVuSans-32"/>
     <use x="256.478516" xlink:href="#DejaVuSans-72"/>
     <use x="331.673828" xlink:href="#DejaVuSans-105"/>
     <use x="359.457031" xlink:href="#DejaVuSans-108"/>
     <use x="387.240234" xlink:href="#DejaVuSans-108"/>
     <use x="415.023438" xlink:href="#DejaVuSans-32"/>
     <use x="446.810547" xlink:href="#DejaVuSans-100"/>
     <use x="510.287109" xlink:href="#DejaVuSans-105"/>
     <use x="538.070312" xlink:href="#DejaVuSans-118"/>
     <use x="597.25" xlink:href="#DejaVuSans-101"/>
     <use x="658.773438" xlink:href="#DejaVuSans-114"/>
     <use x="699.886719" xlink:href="#DejaVuSans-115"/>
     <use x="751.986328" xlink:href="#DejaVuSans-105"/>
     <use x="779.769531" xlink:href="#DejaVuSans-116"/>
     <use x="818.978516" xlink:href="#DejaVuSans-121"/>
    </g>
    <!-- Alakazam -->
    <defs>
     <path d="M 9.078125 75.984375 
L 18.109375 75.984375 
L 18.109375 31.109375 
L 44.921875 54.6875 
L 56.390625 54.6875 
L 27.390625 29.109375 
L 57.625 0 
L 45.90625 0 
L 18.109375 26.703125 
L 18.109375 0 
L 9.078125 0 
z
" id="DejaVuSans-107"/>
    </defs>
    <g transform="translate(512.414563 185.293055)scale(0.07 -0.07)">
     <use xlink:href="#DejaVuSans-65"/>
     <use x="68.408203" xlink:href="#DejaVuSans-108"/>
     <use x="96.191406" xlink:href="#DejaVuSans-97"/>
     <use x="157.470703" xlink:href="#DejaVuSans-107"/>
     <use x="215.365234" xlink:href="#DejaVuSans-97"/>
     <use x="276.644531" xlink:href="#DejaVuSans-122"/>
     <use x="329.134766" xlink:href="#DejaVuSans-97"/>
     <use x="390.414062" xlink:href="#DejaVuSans-109"/>
    </g>
    <!-- [future work] -->
    <defs>
     <path d="M 8.59375 75.984375 
L 29.296875 75.984375 
L 29.296875 69 
L 17.578125 69 
L 17.578125 -6.203125 
L 29.296875 -6.203125 
L 29.296875 -13.1875 
L 8.59375 -13.1875 
z
" id="DejaVuSans-91"/>
     <path d="M 4.203125 54.6875 
L 13.1875 54.6875 
L 24.421875 12.015625 
L 35.59375 54.6875 
L 46.1875 54.6875 
L 57.421875 12.015625 
L 68.609375 54.6875 
L 77.59375 54.6875 
L 63.28125 0 
L 52.6875 0 
L 40.921875 44.828125 
L 29.109375 0 
L 18.5 0 
z
" id="DejaVuSans-119"/>
     <path d="M 30.421875 75.984375 
L 30.421875 -13.1875 
L 9.71875 -13.1875 
L 9.71875 -6.203125 
L 21.390625 -6.203125 
L 21.390625 69 
L 9.71875 69 
L 9.71875 75.984375 
z
" id="DejaVuSans-93"/>
    </defs>
    <g transform="translate(506.543313 193.131524)scale(0.07 -0.07)">
     <use xlink:href="#DejaVuSans-91"/>
     <use x="39.013672" xlink:href="#DejaVuSans-102"/>
     <use x="74.21875" xlink:href="#DejaVuSans-117"/>
     <use x="137.597656" xlink:href="#DejaVuSans-116"/>
     <use x="176.806641" xlink:href="#DejaVuSans-117"/>
     <use x="240.185547" xlink:href="#DejaVuSans-114"/>
     <use x="281.267578" xlink:href="#DejaVuSans-101"/>
     <use x="342.791016" xlink:href="#DejaVuSans-32"/>
     <use x="374.578125" xlink:href="#DejaVuSans-119"/>
     <use x="456.365234" xlink:href="#DejaVuSans-111"/>
     <use x="517.546875" xlink:href="#DejaVuSans-114"/>
     <use x="558.660156" xlink:href="#DejaVuSans-107"/>
     <use x="616.570312" xlink:href="#DejaVuSans-93"/>
    </g>
   </g>
   <g id="text_9">
    <!-- AXIS 4 -->
    <defs>
     <path d="M 36.8125 57.421875 
L 16.21875 26.90625 
L 36.8125 26.90625 
z
M 33.6875 72.90625 
L 54.59375 72.90625 
L 54.59375 26.90625 
L 64.984375 26.90625 
L 64.984375 13.28125 
L 54.59375 13.28125 
L 54.59375 0 
L 36.8125 0 
L 36.8125 13.28125 
L 4.5 13.28125 
L 4.5 29.390625 
z
" id="DejaVuSans-Bold-52"/>
    </defs>
    <g transform="translate(514.76425 249.942027)scale(0.08 -0.08)">
     <use xlink:href="#DejaVuSans-Bold-65"/>
     <use x="77.392578" xlink:href="#DejaVuSans-Bold-88"/>
     <use x="154.492188" xlink:href="#DejaVuSans-Bold-73"/>
     <use x="191.699219" xlink:href="#DejaVuSans-Bold-83"/>
     <use x="263.720703" xlink:href="#DejaVuSans-Bold-32"/>
     <use x="298.535156" xlink:href="#DejaVuSans-Bold-52"/>
    </g>
    <!-- INTENT (post-trial) -->
    <g transform="translate(487.176125 258.900278)scale(0.08 -0.08)">
     <use xlink:href="#DejaVuSans-Bold-73"/>
     <use x="37.207031" xlink:href="#DejaVuSans-Bold-78"/>
     <use x="120.898438" xlink:href="#DejaVuSans-Bold-84"/>
     <use x="189.111328" xlink:href="#DejaVuSans-Bold-69"/>
     <use x="257.421875" xlink:href="#DejaVuSans-Bold-78"/>
     <use x="341.113281" xlink:href="#DejaVuSans-Bold-84"/>
     <use x="409.326172" xlink:href="#DejaVuSans-Bold-32"/>
     <use x="444.140625" xlink:href="#DejaVuSans-Bold-40"/>
     <use x="489.84375" xlink:href="#DejaVuSans-Bold-112"/>
     <use x="561.425781" xlink:href="#DejaVuSans-Bold-111"/>
     <use x="630.126953" xlink:href="#DejaVuSans-Bold-115"/>
     <use x="689.648438" xlink:href="#DejaVuSans-Bold-116"/>
     <use x="737.451172" xlink:href="#DejaVuSans-Bold-45"/>
     <use x="778.955078" xlink:href="#DejaVuSans-Bold-116"/>
     <use x="826.757812" xlink:href="#DejaVuSans-Bold-114"/>
     <use x="876.074219" xlink:href="#DejaVuSans-Bold-105"/>
     <use x="910.351562" xlink:href="#DejaVuSans-Bold-97"/>
     <use x="977.832031" xlink:href="#DejaVuSans-Bold-108"/>
     <use x="1012.109375" xlink:href="#DejaVuSans-Bold-41"/>
    </g>
   </g>
   <g id="text_10">
    <!-- TCRpMHC -->
    <defs>
     <path d="M 44.390625 34.1875 
Q 47.5625 33.109375 50.5625 29.59375 
Q 53.5625 26.078125 56.59375 19.921875 
L 66.609375 0 
L 56 0 
L 46.6875 18.703125 
Q 43.0625 26.03125 39.671875 28.421875 
Q 36.28125 30.8125 30.421875 30.8125 
L 19.671875 30.8125 
L 19.671875 0 
L 9.8125 0 
L 9.8125 72.90625 
L 32.078125 72.90625 
Q 44.578125 72.90625 50.734375 67.671875 
Q 56.890625 62.453125 56.890625 51.90625 
Q 56.890625 45.015625 53.6875 40.46875 
Q 50.484375 35.9375 44.390625 34.1875 
z
M 19.671875 64.796875 
L 19.671875 38.921875 
L 32.078125 38.921875 
Q 39.203125 38.921875 42.84375 42.21875 
Q 46.484375 45.515625 46.484375 51.90625 
Q 46.484375 58.296875 42.84375 61.546875 
Q 39.203125 64.796875 32.078125 64.796875 
z
" id="DejaVuSans-82"/>
    </defs>
    <g transform="translate(512.159172 292.208186)scale(0.07 -0.07)">
     <use xlink:href="#DejaVuSans-84"/>
     <use x="61.005859" xlink:href="#DejaVuSans-67"/>
     <use x="130.830078" xlink:href="#DejaVuSans-82"/>
     <use x="200.3125" xlink:href="#DejaVuSans-112"/>
     <use x="263.789062" xlink:href="#DejaVuSans-77"/>
     <use x="350.068359" xlink:href="#DejaVuSans-72"/>
     <use x="425.263672" xlink:href="#DejaVuSans-67"/>
    </g>
    <!-- polyfunctionality -->
    <g transform="translate(500.250422 300.046655)scale(0.07 -0.07)">
     <use xlink:href="#DejaVuSans-112"/>
     <use x="63.476562" xlink:href="#DejaVuSans-111"/>
     <use x="124.658203" xlink:href="#DejaVuSans-108"/>
     <use x="152.441406" xlink:href="#DejaVuSans-121"/>
     <use x="211.621094" xlink:href="#DejaVuSans-102"/>
     <use x="246.826172" xlink:href="#DejaVuSans-117"/>
     <use x="310.205078" xlink:href="#DejaVuSans-110"/>
     <use x="373.583984" xlink:href="#DejaVuSans-99"/>
     <use x="428.564453" xlink:href="#DejaVuSans-116"/>
     <use x="467.773438" xlink:href="#DejaVuSans-105"/>
     <use x="495.556641" xlink:href="#DejaVuSans-111"/>
     <use x="556.738281" xlink:href="#DejaVuSans-110"/>
     <use x="620.117188" xlink:href="#DejaVuSans-97"/>
     <use x="681.396484" xlink:href="#DejaVuSans-108"/>
     <use x="709.179688" xlink:href="#DejaVuSans-105"/>
     <use x="736.962891" xlink:href="#DejaVuSans-116"/>
     <use x="776.171875" xlink:href="#DejaVuSans-121"/>
    </g>
    <!-- [future work] -->
    <g transform="translate(506.543313 307.885124)scale(0.07 -0.07)">
     <use xlink:href="#DejaVuSans-91"/>
     <use x="39.013672" xlink:href="#DejaVuSans-102"/>
     <use x="74.21875" xlink:href="#DejaVuSans-117"/>
     <use x="137.597656" xlink:href="#DejaVuSans-116"/>
     <use x="176.806641" xlink:href="#DejaVuSans-117"/>
     <use x="240.185547" xlink:href="#DejaVuSans-114"/>
     <use x="281.267578" xlink:href="#DejaVuSans-101"/>
     <use x="342.791016" xlink:href="#DejaVuSans-32"/>
     <use x="374.578125" xlink:href="#DejaVuSans-119"/>
     <use x="456.365234" xlink:href="#DejaVuSans-111"/>
     <use x="517.546875" xlink:href="#DejaVuSans-114"/>
     <use x="558.660156" xlink:href="#DejaVuSans-107"/>
     <use x="616.570312" xlink:href="#DejaVuSans-93"/>
    </g>
   </g>
   <g id="text_11">
    <!-- AXIS 5 -->
    <defs>
     <path d="M 10.59375 72.90625 
L 57.328125 72.90625 
L 57.328125 59.078125 
L 25.59375 59.078125 
L 25.59375 47.796875 
Q 27.734375 48.390625 29.90625 48.703125 
Q 32.078125 49.03125 34.421875 49.03125 
Q 47.75 49.03125 55.171875 42.359375 
Q 62.59375 35.6875 62.59375 23.78125 
Q 62.59375 11.96875 54.515625 5.265625 
Q 46.4375 -1.421875 32.078125 -1.421875 
Q 25.875 -1.421875 19.796875 -0.21875 
Q 13.71875 0.984375 7.71875 3.421875 
L 7.71875 18.21875 
Q 13.671875 14.796875 19.015625 13.078125 
Q 24.359375 11.375 29.109375 11.375 
Q 35.9375 11.375 39.859375 14.71875 
Q 43.796875 18.0625 43.796875 23.78125 
Q 43.796875 29.546875 39.859375 32.859375 
Q 35.9375 36.1875 29.109375 36.1875 
Q 25.046875 36.1875 20.453125 35.125 
Q 15.875 34.078125 10.59375 31.890625 
z
" id="DejaVuSans-Bold-53"/>
    </defs>
    <g transform="translate(683.24425 192.565227)scale(0.08 -0.08)">
     <use xlink:href="#DejaVuSans-Bold-65"/>
     <use x="77.392578" xlink:href="#DejaVuSans-Bold-88"/>
     <use x="154.492188" xlink:href="#DejaVuSans-Bold-73"/>
     <use x="191.699219" xlink:href="#DejaVuSans-Bold-83"/>
     <use x="263.720703" xlink:href="#DejaVuSans-Bold-32"/>
     <use x="298.535156" xlink:href="#DejaVuSans-Bold-53"/>
    </g>
    <!-- EFFECTOR (post-trial) -->
    <defs>
     <path d="M 9.1875 72.90625 
L 59.90625 72.90625 
L 59.90625 58.6875 
L 27.984375 58.6875 
L 27.984375 45.125 
L 58.015625 45.125 
L 58.015625 30.90625 
L 27.984375 30.90625 
L 27.984375 0 
L 9.1875 0 
z
" id="DejaVuSans-Bold-70"/>
     <path d="M 67 4 
Q 61.8125 1.3125 56.203125 -0.046875 
Q 50.59375 -1.421875 44.484375 -1.421875 
Q 26.265625 -1.421875 15.625 8.765625 
Q 4.984375 18.953125 4.984375 36.375 
Q 4.984375 53.859375 15.625 64.03125 
Q 26.265625 74.21875 44.484375 74.21875 
Q 50.59375 74.21875 56.203125 72.84375 
Q 61.8125 71.484375 67 68.796875 
L 67 53.71875 
Q 61.765625 57.28125 56.6875 58.9375 
Q 51.609375 60.59375 46 60.59375 
Q 35.9375 60.59375 30.171875 54.140625 
Q 24.421875 47.703125 24.421875 36.375 
Q 24.421875 25.09375 30.171875 18.640625 
Q 35.9375 12.203125 46 12.203125 
Q 51.609375 12.203125 56.6875 13.859375 
Q 61.765625 15.53125 67 19.09375 
z
" id="DejaVuSans-Bold-67"/>
    </defs>
    <g transform="translate(648.95425 201.523477)scale(0.08 -0.08)">
     <use xlink:href="#DejaVuSans-Bold-69"/>
     <use x="68.310547" xlink:href="#DejaVuSans-Bold-70"/>
     <use x="136.621094" xlink:href="#DejaVuSans-Bold-70"/>
     <use x="204.931641" xlink:href="#DejaVuSans-Bold-69"/>
     <use x="273.242188" xlink:href="#DejaVuSans-Bold-67"/>
     <use x="346.630859" xlink:href="#DejaVuSans-Bold-84"/>
     <use x="414.84375" xlink:href="#DejaVuSans-Bold-79"/>
     <use x="499.853516" xlink:href="#DejaVuSans-Bold-82"/>
     <use x="576.855469" xlink:href="#DejaVuSans-Bold-32"/>
     <use x="611.669922" xlink:href="#DejaVuSans-Bold-40"/>
     <use x="657.373047" xlink:href="#DejaVuSans-Bold-112"/>
     <use x="728.955078" xlink:href="#DejaVuSans-Bold-111"/>
     <use x="797.65625" xlink:href="#DejaVuSans-Bold-115"/>
     <use x="857.177734" xlink:href="#DejaVuSans-Bold-116"/>
     <use x="904.980469" xlink:href="#DejaVuSans-Bold-45"/>
     <use x="946.484375" xlink:href="#DejaVuSans-Bold-116"/>
     <use x="994.287109" xlink:href="#DejaVuSans-Bold-114"/>
     <use x="1043.603516" xlink:href="#DejaVuSans-Bold-105"/>
     <use x="1077.880859" xlink:href="#DejaVuSans-Bold-97"/>
     <use x="1145.361328" xlink:href="#DejaVuSans-Bold-108"/>
     <use x="1179.638672" xlink:href="#DejaVuSans-Bold-41"/>
    </g>
   </g>
   <g id="text_12">
    <!-- DC-bcell maturation -->
    <defs>
     <path d="M 48.6875 27.296875 
Q 48.6875 37.203125 44.609375 42.84375 
Q 40.53125 48.484375 33.40625 48.484375 
Q 26.265625 48.484375 22.1875 42.84375 
Q 18.109375 37.203125 18.109375 27.296875 
Q 18.109375 17.390625 22.1875 11.75 
Q 26.265625 6.109375 33.40625 6.109375 
Q 40.53125 6.109375 44.609375 11.75 
Q 48.6875 17.390625 48.6875 27.296875 
z
M 18.109375 46.390625 
Q 20.953125 51.265625 25.265625 53.625 
Q 29.59375 56 35.59375 56 
Q 45.5625 56 51.78125 48.09375 
Q 58.015625 40.1875 58.015625 27.296875 
Q 58.015625 14.40625 51.78125 6.484375 
Q 45.5625 -1.421875 35.59375 -1.421875 
Q 29.59375 -1.421875 25.265625 0.953125 
Q 20.953125 3.328125 18.109375 8.203125 
L 18.109375 0 
L 9.078125 0 
L 9.078125 75.984375 
L 18.109375 75.984375 
z
" id="DejaVuSans-98"/>
    </defs>
    <g transform="translate(662.777141 234.831386)scale(0.07 -0.07)">
     <use xlink:href="#DejaVuSans-68"/>
     <use x="77.001953" xlink:href="#DejaVuSans-67"/>
     <use x="146.826172" xlink:href="#DejaVuSans-45"/>
     <use x="182.910156" xlink:href="#DejaVuSans-98"/>
     <use x="246.386719" xlink:href="#DejaVuSans-99"/>
     <use x="301.367188" xlink:href="#DejaVuSans-101"/>
     <use x="362.890625" xlink:href="#DejaVuSans-108"/>
     <use x="390.673828" xlink:href="#DejaVuSans-108"/>
     <use x="418.457031" xlink:href="#DejaVuSans-32"/>
     <use x="450.244141" xlink:href="#DejaVuSans-109"/>
     <use x="547.65625" xlink:href="#DejaVuSans-97"/>
     <use x="608.935547" xlink:href="#DejaVuSans-116"/>
     <use x="648.144531" xlink:href="#DejaVuSans-117"/>
     <use x="711.523438" xlink:href="#DejaVuSans-114"/>
     <use x="752.636719" xlink:href="#DejaVuSans-97"/>
     <use x="813.916016" xlink:href="#DejaVuSans-116"/>
     <use x="853.125" xlink:href="#DejaVuSans-105"/>
     <use x="880.908203" xlink:href="#DejaVuSans-111"/>
     <use x="942.089844" xlink:href="#DejaVuSans-110"/>
    </g>
    <!-- opsonophagocytosis -->
    <g transform="translate(662.202922 242.669855)scale(0.07 -0.07)">
     <use xlink:href="#DejaVuSans-111"/>
     <use x="61.181641" xlink:href="#DejaVuSans-112"/>
     <use x="124.658203" xlink:href="#DejaVuSans-115"/>
     <use x="176.757812" xlink:href="#DejaVuSans-111"/>
     <use x="237.939453" xlink:href="#DejaVuSans-110"/>
     <use x="301.318359" xlink:href="#DejaVuSans-111"/>
     <use x="362.5" xlink:href="#DejaVuSans-112"/>
     <use x="425.976562" xlink:href="#DejaVuSans-104"/>
     <use x="489.355469" xlink:href="#DejaVuSans-97"/>
     <use x="550.634766" xlink:href="#DejaVuSans-103"/>
     <use x="614.111328" xlink:href="#DejaVuSans-111"/>
     <use x="675.292969" xlink:href="#DejaVuSans-99"/>
     <use x="730.273438" xlink:href="#DejaVuSans-121"/>
     <use x="789.453125" xlink:href="#DejaVuSans-116"/>
     <use x="828.662109" xlink:href="#DejaVuSans-111"/>
     <use x="889.84375" xlink:href="#DejaVuSans-115"/>
     <use x="941.943359" xlink:href="#DejaVuSans-105"/>
     <use x="969.726562" xlink:href="#DejaVuSans-115"/>
    </g>
    <!-- [future work] -->
    <g transform="translate(675.023312 250.508324)scale(0.07 -0.07)">
     <use xlink:href="#DejaVuSans-91"/>
     <use x="39.013672" xlink:href="#DejaVuSans-102"/>
     <use x="74.21875" xlink:href="#DejaVuSans-117"/>
     <use x="137.597656" xlink:href="#DejaVuSans-116"/>
     <use x="176.806641" xlink:href="#DejaVuSans-117"/>
     <use x="240.185547" xlink:href="#DejaVuSans-114"/>
     <use x="281.267578" xlink:href="#DejaVuSans-101"/>
     <use x="342.791016" xlink:href="#DejaVuSans-32"/>
     <use x="374.578125" xlink:href="#DejaVuSans-119"/>
     <use x="456.365234" xlink:href="#DejaVuSans-111"/>
     <use x="517.546875" xlink:href="#DejaVuSans-114"/>
     <use x="558.660156" xlink:href="#DejaVuSans-107"/>
     <use x="616.570312" xlink:href="#DejaVuSans-93"/>
    </g>
   </g>
   <g id="text_13">
    <!-- OUTPUT -->
    <g transform="translate(789.19375 197.044353)scale(0.08 -0.08)">
     <use xlink:href="#DejaVuSans-Bold-79"/>
     <use x="85.009766" xlink:href="#DejaVuSans-Bold-85"/>
     <use x="166.210938" xlink:href="#DejaVuSans-Bold-84"/>
     <use x="234.423828" xlink:href="#DejaVuSans-Bold-80"/>
     <use x="307.714844" xlink:href="#DejaVuSans-Bold-85"/>
     <use x="388.916016" xlink:href="#DejaVuSans-Bold-84"/>
    </g>
   </g>
   <g id="text_14">
    <!-- Estofolete Table 4 -->
    <g transform="translate(775.832891 234.831386)scale(0.07 -0.07)">
     <use xlink:href="#DejaVuSans-69"/>
     <use x="63.183594" xlink:href="#DejaVuSans-115"/>
     <use x="115.283203" xlink:href="#DejaVuSans-116"/>
     <use x="154.492188" xlink:href="#DejaVuSans-111"/>
     <use x="215.673828" xlink:href="#DejaVuSans-102"/>
     <use x="250.878906" xlink:href="#DejaVuSans-111"/>
     <use x="312.060547" xlink:href="#DejaVuSans-108"/>
     <use x="339.84375" xlink:href="#DejaVuSans-101"/>
     <use x="401.367188" xlink:href="#DejaVuSans-116"/>
     <use x="440.576172" xlink:href="#DejaVuSans-101"/>
     <use x="502.099609" xlink:href="#DejaVuSans-32"/>
     <use x="533.886719" xlink:href="#DejaVuSans-84"/>
     <use x="594.720703" xlink:href="#DejaVuSans-97"/>
     <use x="656" xlink:href="#DejaVuSans-98"/>
     <use x="719.476562" xlink:href="#DejaVuSans-108"/>
     <use x="747.259766" xlink:href="#DejaVuSans-101"/>
     <use x="808.783203" xlink:href="#DejaVuSans-32"/>
     <use x="840.570312" xlink:href="#DejaVuSans-52"/>
    </g>
    <!-- Tier A + Tier B -->
    <g transform="translate(781.900469 242.669855)scale(0.07 -0.07)">
     <use xlink:href="#DejaVuSans-84"/>
     <use x="61.037109" xlink:href="#DejaVuSans-105"/>
     <use x="88.820312" xlink:href="#DejaVuSans-101"/>
     <use x="150.34375" xlink:href="#DejaVuSans-114"/>
     <use x="191.457031" xlink:href="#DejaVuSans-32"/>
     <use x="223.244141" xlink:href="#DejaVuSans-65"/>
     <use x="291.652344" xlink:href="#DejaVuSans-32"/>
     <use x="323.439453" xlink:href="#DejaVuSans-43"/>
     <use x="407.228516" xlink:href="#DejaVuSans-32"/>
     <use x="439.015625" xlink:href="#DejaVuSans-84"/>
     <use x="500.052734" xlink:href="#DejaVuSans-105"/>
     <use x="527.835938" xlink:href="#DejaVuSans-101"/>
     <use x="589.359375" xlink:href="#DejaVuSans-114"/>
     <use x="630.472656" xlink:href="#DejaVuSans-32"/>
     <use x="662.259766" xlink:href="#DejaVuSans-66"/>
    </g>
    <!-- ranked candidates -->
    <g transform="translate(774.967734 250.508324)scale(0.07 -0.07)">
     <use xlink:href="#DejaVuSans-114"/>
     <use x="41.113281" xlink:href="#DejaVuSans-97"/>
     <use x="102.392578" xlink:href="#DejaVuSans-110"/>
     <use x="165.771484" xlink:href="#DejaVuSans-107"/>
     <use x="223.634766" xlink:href="#DejaVuSans-101"/>
     <use x="285.158203" xlink:href="#DejaVuSans-100"/>
     <use x="348.634766" xlink:href="#DejaVuSans-32"/>
     <use x="380.421875" xlink:href="#DejaVuSans-99"/>
     <use x="435.402344" xlink:href="#DejaVuSans-97"/>
     <use x="496.681641" xlink:href="#DejaVuSans-110"/>
     <use x="560.060547" xlink:href="#DejaVuSans-100"/>
     <use x="623.537109" xlink:href="#DejaVuSans-105"/>
     <use x="651.320312" xlink:href="#DejaVuSans-100"/>
     <use x="714.796875" xlink:href="#DejaVuSans-97"/>
     <use x="776.076172" xlink:href="#DejaVuSans-116"/>
     <use x="815.285156" xlink:href="#DejaVuSans-101"/>
     <use x="876.808594" xlink:href="#DejaVuSans-115"/>
    </g>
   </g>
   <g id="patch_9">
    <path d="M 101.861512 225.437812 
Q 120.921163 225.437812 138.303763 225.437812 
" style="fill:none;stroke:#333333;stroke-linecap:round;stroke-width:1.5;"/>
    <path d="M 134.303763 223.437812 
L 138.303763 225.437812 
L 134.303763 227.437812 
" style="fill:none;stroke:#333333;stroke-linecap:round;stroke-width:1.5;"/>
   </g>
   <g id="patch_10">
    <path d="M 245.075168 225.437812 
Q 276.769834 225.437812 306.787449 225.437812 
" style="fill:none;stroke:#333333;stroke-linecap:round;stroke-width:1.5;"/>
    <path d="M 302.787449 223.437812 
L 306.787449 225.437812 
L 302.787449 227.437812 
" style="fill:none;stroke:#333333;stroke-linecap:round;stroke-width:1.5;"/>
   </g>
   <g id="patch_11">
    <path d="M 413.555168 225.437812 
Q 445.249834 225.437812 475.267449 225.437812 
" style="fill:none;stroke:#333333;stroke-linecap:round;stroke-width:1.5;"/>
    <path d="M 471.267449 223.437812 
L 475.267449 225.437812 
L 471.267449 227.437812 
" style="fill:none;stroke:#333333;stroke-linecap:round;stroke-width:1.5;"/>
   </g>
   <g id="patch_12">
    <path d="M 582.035168 225.437812 
Q 613.729834 225.437812 643.747449 225.437812 
" style="fill:none;stroke:#333333;stroke-linecap:round;stroke-width:1.5;"/>
    <path d="M 639.747449 223.437812 
L 643.747449 225.437812 
L 639.747449 227.437812 
" style="fill:none;stroke:#333333;stroke-linecap:round;stroke-width:1.5;"/>
   </g>
   <g id="patch_13">
    <path d="M 750.515168 225.437812 
Q 752.727032 225.437812 753.261845 225.437812 
" style="fill:none;stroke:#333333;stroke-linecap:round;stroke-width:1.5;"/>
    <path d="M 749.261845 223.437812 
L 753.261845 225.437812 
L 749.261845 227.437812 
" style="fill:none;stroke:#333333;stroke-linecap:round;stroke-width:1.5;"/>
   </g>
   <g id="text_15">
    <!-- ICA-Dengue empirical pipeline (fork of Versiani 2026 immunoinformatics_platform) -->
    <defs>
     <path d="M 27.984375 58.6875 
L 27.984375 14.203125 
L 34.71875 14.203125 
Q 46.234375 14.203125 52.3125 19.921875 
Q 58.40625 25.640625 58.40625 36.53125 
Q 58.40625 47.359375 52.34375 53.015625 
Q 46.296875 58.6875 34.71875 58.6875 
z
M 9.1875 72.90625 
L 29 72.90625 
Q 45.609375 72.90625 53.734375 70.53125 
Q 61.859375 68.171875 67.671875 62.5 
Q 72.796875 57.5625 75.28125 51.109375 
Q 77.78125 44.671875 77.78125 36.53125 
Q 77.78125 28.265625 75.28125 21.796875 
Q 72.796875 15.328125 67.671875 10.40625 
Q 61.8125 4.734375 53.609375 2.359375 
Q 45.40625 0 29 0 
L 9.1875 0 
z
" id="DejaVuSans-Bold-68"/>
     <path d="M 62.984375 27.484375 
L 62.984375 22.515625 
L 22.125 22.515625 
Q 22.75 16.359375 26.5625 13.28125 
Q 30.375 10.203125 37.203125 10.203125 
Q 42.71875 10.203125 48.5 11.84375 
Q 54.296875 13.484375 60.40625 16.796875 
L 60.40625 3.328125 
Q 54.203125 0.984375 48 -0.21875 
Q 41.796875 -1.421875 35.59375 -1.421875 
Q 20.75 -1.421875 12.515625 6.125 
Q 4.296875 13.671875 4.296875 27.296875 
Q 4.296875 40.671875 12.375 48.328125 
Q 20.453125 56 34.625 56 
Q 47.515625 56 55.25 48.234375 
Q 62.984375 40.484375 62.984375 27.484375 
z
M 45.015625 33.296875 
Q 45.015625 38.28125 42.109375 41.328125 
Q 39.203125 44.390625 34.515625 44.390625 
Q 29.4375 44.390625 26.265625 41.53125 
Q 23.09375 38.671875 22.3125 33.296875 
z
" id="DejaVuSans-Bold-101"/>
     <path d="M 63.375 33.296875 
L 63.375 0 
L 45.796875 0 
L 45.796875 5.421875 
L 45.796875 25.484375 
Q 45.796875 32.5625 45.484375 35.25 
Q 45.171875 37.9375 44.390625 39.203125 
Q 43.359375 40.921875 41.59375 41.875 
Q 39.84375 42.828125 37.59375 42.828125 
Q 32.125 42.828125 29 38.59375 
Q 25.875 34.375 25.875 26.90625 
L 25.875 0 
L 8.40625 0 
L 8.40625 54.6875 
L 25.875 54.6875 
L 25.875 46.6875 
Q 29.828125 51.46875 34.265625 53.734375 
Q 38.71875 56 44.09375 56 
Q 53.5625 56 58.46875 50.1875 
Q 63.375 44.390625 63.375 33.296875 
z
" id="DejaVuSans-Bold-110"/>
     <path d="M 45.609375 9.28125 
Q 42 4.5 37.640625 2.25 
Q 33.296875 0 27.59375 0 
Q 17.578125 0 11.03125 7.875 
Q 4.5 15.765625 4.5 27.984375 
Q 4.5 40.234375 11.03125 48.0625 
Q 17.578125 55.90625 27.59375 55.90625 
Q 33.296875 55.90625 37.640625 53.65625 
Q 42 51.421875 45.609375 46.578125 
L 45.609375 54.6875 
L 63.1875 54.6875 
L 63.1875 5.515625 
Q 63.1875 -7.671875 54.859375 -14.625 
Q 46.53125 -21.578125 30.71875 -21.578125 
Q 25.59375 -21.578125 20.796875 -20.796875 
Q 16.015625 -20.015625 11.1875 -18.40625 
L 11.1875 -4.78125 
Q 15.765625 -7.421875 20.15625 -8.71875 
Q 24.5625 -10.015625 29 -10.015625 
Q 37.59375 -10.015625 41.59375 -6.25 
Q 45.609375 -2.484375 45.609375 5.515625 
z
M 34.078125 43.3125 
Q 28.65625 43.3125 25.625 39.296875 
Q 22.609375 35.296875 22.609375 27.984375 
Q 22.609375 20.453125 25.53125 16.578125 
Q 28.46875 12.703125 34.078125 12.703125 
Q 39.546875 12.703125 42.578125 16.703125 
Q 45.609375 20.703125 45.609375 27.984375 
Q 45.609375 35.296875 42.578125 39.296875 
Q 39.546875 43.3125 34.078125 43.3125 
z
" id="DejaVuSans-Bold-103"/>
     <path d="M 7.8125 21.296875 
L 7.8125 54.6875 
L 25.390625 54.6875 
L 25.390625 49.21875 
Q 25.390625 44.78125 25.34375 38.0625 
Q 25.296875 31.34375 25.296875 29.109375 
Q 25.296875 22.515625 25.640625 19.609375 
Q 25.984375 16.703125 26.8125 15.375 
Q 27.875 13.671875 29.609375 12.734375 
Q 31.34375 11.8125 33.59375 11.8125 
Q 39.0625 11.8125 42.1875 16.015625 
Q 45.3125 20.21875 45.3125 27.6875 
L 45.3125 54.6875 
L 62.796875 54.6875 
L 62.796875 0 
L 45.3125 0 
L 45.3125 7.90625 
Q 41.359375 3.125 36.9375 0.84375 
Q 32.515625 -1.421875 27.203125 -1.421875 
Q 17.71875 -1.421875 12.765625 4.390625 
Q 7.8125 10.203125 7.8125 21.296875 
z
" id="DejaVuSans-Bold-117"/>
     <path d="M 59.078125 45.609375 
Q 62.40625 50.6875 66.96875 53.34375 
Q 71.53125 56 77 56 
Q 86.421875 56 91.359375 50.1875 
Q 96.296875 44.390625 96.296875 33.296875 
L 96.296875 0 
L 78.71875 0 
L 78.71875 28.515625 
Q 78.765625 29.15625 78.78125 29.828125 
Q 78.8125 30.515625 78.8125 31.78125 
Q 78.8125 37.59375 77.09375 40.203125 
Q 75.390625 42.828125 71.578125 42.828125 
Q 66.609375 42.828125 63.890625 38.71875 
Q 61.1875 34.625 61.078125 26.859375 
L 61.078125 0 
L 43.5 0 
L 43.5 28.515625 
Q 43.5 37.59375 41.9375 40.203125 
Q 40.375 42.828125 36.375 42.828125 
Q 31.34375 42.828125 28.609375 38.703125 
Q 25.875 34.578125 25.875 26.90625 
L 25.875 0 
L 8.296875 0 
L 8.296875 54.6875 
L 25.875 54.6875 
L 25.875 46.6875 
Q 29.109375 51.3125 33.28125 53.65625 
Q 37.453125 56 42.484375 56 
Q 48.140625 56 52.484375 53.265625 
Q 56.84375 50.53125 59.078125 45.609375 
z
" id="DejaVuSans-Bold-109"/>
     <path d="M 52.59375 52.984375 
L 52.59375 38.71875 
Q 49.03125 41.15625 45.4375 42.328125 
Q 41.84375 43.5 37.984375 43.5 
Q 30.671875 43.5 26.59375 39.234375 
Q 22.515625 34.96875 22.515625 27.296875 
Q 22.515625 19.625 26.59375 15.34375 
Q 30.671875 11.078125 37.984375 11.078125 
Q 42.09375 11.078125 45.78125 12.296875 
Q 49.46875 13.53125 52.59375 15.921875 
L 52.59375 1.609375 
Q 48.484375 0.09375 44.265625 -0.65625 
Q 40.046875 -1.421875 35.796875 -1.421875 
Q 21 -1.421875 12.640625 6.171875 
Q 4.296875 13.765625 4.296875 27.296875 
Q 4.296875 40.828125 12.640625 48.40625 
Q 21 56 35.796875 56 
Q 40.09375 56 44.265625 55.25 
Q 48.4375 54.5 52.59375 52.984375 
z
" id="DejaVuSans-Bold-99"/>
     <path d="M 44.390625 75.984375 
L 44.390625 64.5 
L 34.71875 64.5 
Q 31 64.5 29.53125 63.15625 
Q 28.078125 61.8125 28.078125 58.5 
L 28.078125 54.6875 
L 43.015625 54.6875 
L 43.015625 42.1875 
L 28.078125 42.1875 
L 28.078125 0 
L 10.59375 0 
L 10.59375 42.1875 
L 1.90625 42.1875 
L 1.90625 54.6875 
L 10.59375 54.6875 
L 10.59375 58.5 
Q 10.59375 67.4375 15.578125 71.703125 
Q 20.5625 75.984375 31 75.984375 
z
" id="DejaVuSans-Bold-102"/>
     <path d="M 8.40625 75.984375 
L 25.875 75.984375 
L 25.875 34.625 
L 46 54.6875 
L 66.3125 54.6875 
L 39.59375 29.59375 
L 68.40625 0 
L 47.21875 0 
L 25.875 22.796875 
L 25.875 0 
L 8.40625 0 
z
" id="DejaVuSans-Bold-107"/>
     <path d="M 0.484375 72.90625 
L 19.390625 72.90625 
L 38.71875 19.09375 
L 58.015625 72.90625 
L 76.90625 72.90625 
L 49.90625 0 
L 27.484375 0 
z
" id="DejaVuSans-Bold-86"/>
     <path d="M 46 36.53125 
Q 46 50.203125 43.4375 55.78125 
Q 40.875 61.375 34.8125 61.375 
Q 28.765625 61.375 26.171875 55.78125 
Q 23.578125 50.203125 23.578125 36.53125 
Q 23.578125 22.703125 26.171875 17.03125 
Q 28.765625 11.375 34.8125 11.375 
Q 40.828125 11.375 43.40625 17.03125 
Q 46 22.703125 46 36.53125 
z
M 64.796875 36.375 
Q 64.796875 18.265625 56.984375 8.421875 
Q 49.171875 -1.421875 34.8125 -1.421875 
Q 20.40625 -1.421875 12.59375 8.421875 
Q 4.78125 18.265625 4.78125 36.375 
Q 4.78125 54.546875 12.59375 64.375 
Q 20.40625 74.21875 34.8125 74.21875 
Q 49.171875 74.21875 56.984375 64.375 
Q 64.796875 54.546875 64.796875 36.375 
z
" id="DejaVuSans-Bold-48"/>
     <path d="M 36.1875 35.984375 
Q 31.25 35.984375 28.78125 32.78125 
Q 26.3125 29.59375 26.3125 23.1875 
Q 26.3125 16.796875 28.78125 13.59375 
Q 31.25 10.40625 36.1875 10.40625 
Q 41.15625 10.40625 43.625 13.59375 
Q 46.09375 16.796875 46.09375 23.1875 
Q 46.09375 29.59375 43.625 32.78125 
Q 41.15625 35.984375 36.1875 35.984375 
z
M 59.421875 71 
L 59.421875 57.515625 
Q 54.78125 59.71875 50.671875 60.765625 
Q 46.578125 61.8125 42.671875 61.8125 
Q 34.28125 61.8125 29.59375 57.140625 
Q 24.90625 52.484375 24.125 43.3125 
Q 27.34375 45.703125 31.09375 46.890625 
Q 34.859375 48.09375 39.3125 48.09375 
Q 50.484375 48.09375 57.34375 41.546875 
Q 64.203125 35.015625 64.203125 24.421875 
Q 64.203125 12.703125 56.53125 5.640625 
Q 48.875 -1.421875 35.984375 -1.421875 
Q 21.78125 -1.421875 13.984375 8.171875 
Q 6.203125 17.78125 6.203125 35.40625 
Q 6.203125 53.46875 15.3125 63.796875 
Q 24.421875 74.125 40.28125 74.125 
Q 45.3125 74.125 50.046875 73.34375 
Q 54.78125 72.5625 59.421875 71 
z
" id="DejaVuSans-Bold-54"/>
     <path d="M 50 -14.3125 
L 50 -23.578125 
L 0 -23.578125 
L 0 -14.3125 
z
" id="DejaVuSans-Bold-95"/>
    </defs>
    <g transform="translate(170.863359 15.558281)scale(0.11 -0.11)">
     <use xlink:href="#DejaVuSans-Bold-73"/>
     <use x="37.207031" xlink:href="#DejaVuSans-Bold-67"/>
     <use x="110.595703" xlink:href="#DejaVuSans-Bold-65"/>
     <use x="187.988281" xlink:href="#DejaVuSans-Bold-45"/>
     <use x="229.492188" xlink:href="#DejaVuSans-Bold-68"/>
     <use x="312.5" xlink:href="#DejaVuSans-Bold-101"/>
     <use x="380.322266" xlink:href="#DejaVuSans-Bold-110"/>
     <use x="451.513672" xlink:href="#DejaVuSans-Bold-103"/>
     <use x="523.095703" xlink:href="#DejaVuSans-Bold-117"/>
     <use x="594.287109" xlink:href="#DejaVuSans-Bold-101"/>
     <use x="662.109375" xlink:href="#DejaVuSans-Bold-32"/>
     <use x="696.923828" xlink:href="#DejaVuSans-Bold-101"/>
     <use x="764.746094" xlink:href="#DejaVuSans-Bold-109"/>
     <use x="868.945312" xlink:href="#DejaVuSans-Bold-112"/>
     <use x="940.527344" xlink:href="#DejaVuSans-Bold-105"/>
     <use x="974.804688" xlink:href="#DejaVuSans-Bold-114"/>
     <use x="1024.121094" xlink:href="#DejaVuSans-Bold-105"/>
     <use x="1058.398438" xlink:href="#DejaVuSans-Bold-99"/>
     <use x="1117.675781" xlink:href="#DejaVuSans-Bold-97"/>
     <use x="1185.15625" xlink:href="#DejaVuSans-Bold-108"/>
     <use x="1219.433594" xlink:href="#DejaVuSans-Bold-32"/>
     <use x="1254.248047" xlink:href="#DejaVuSans-Bold-112"/>
     <use x="1325.830078" xlink:href="#DejaVuSans-Bold-105"/>
     <use x="1360.107422" xlink:href="#DejaVuSans-Bold-112"/>
     <use x="1431.689453" xlink:href="#DejaVuSans-Bold-101"/>
     <use x="1499.511719" xlink:href="#DejaVuSans-Bold-108"/>
     <use x="1533.789062" xlink:href="#DejaVuSans-Bold-105"/>
     <use x="1568.066406" xlink:href="#DejaVuSans-Bold-110"/>
     <use x="1639.257812" xlink:href="#DejaVuSans-Bold-101"/>
     <use x="1707.080078" xlink:href="#DejaVuSans-Bold-32"/>
     <use x="1741.894531" xlink:href="#DejaVuSans-Bold-40"/>
     <use x="1787.597656" xlink:href="#DejaVuSans-Bold-102"/>
     <use x="1831.103516" xlink:href="#DejaVuSans-Bold-111"/>
     <use x="1899.804688" xlink:href="#DejaVuSans-Bold-114"/>
     <use x="1949.121094" xlink:href="#DejaVuSans-Bold-107"/>
     <use x="2015.625" xlink:href="#DejaVuSans-Bold-32"/>
     <use x="2050.439453" xlink:href="#DejaVuSans-Bold-111"/>
     <use x="2119.140625" xlink:href="#DejaVuSans-Bold-102"/>
     <use x="2162.646484" xlink:href="#DejaVuSans-Bold-32"/>
     <use x="2197.460938" xlink:href="#DejaVuSans-Bold-86"/>
     <use x="2274.775391" xlink:href="#DejaVuSans-Bold-101"/>
     <use x="2342.597656" xlink:href="#DejaVuSans-Bold-114"/>
     <use x="2391.914062" xlink:href="#DejaVuSans-Bold-115"/>
     <use x="2451.435547" xlink:href="#DejaVuSans-Bold-105"/>
     <use x="2485.712891" xlink:href="#DejaVuSans-Bold-97"/>
     <use x="2553.193359" xlink:href="#DejaVuSans-Bold-110"/>
     <use x="2624.384766" xlink:href="#DejaVuSans-Bold-105"/>
     <use x="2658.662109" xlink:href="#DejaVuSans-Bold-32"/>
     <use x="2693.476562" xlink:href="#DejaVuSans-Bold-50"/>
     <use x="2763.056641" xlink:href="#DejaVuSans-Bold-48"/>
     <use x="2832.636719" xlink:href="#DejaVuSans-Bold-50"/>
     <use x="2902.216797" xlink:href="#DejaVuSans-Bold-54"/>
     <use x="2971.796875" xlink:href="#DejaVuSans-Bold-32"/>
     <use x="3006.611328" xlink:href="#DejaVuSans-Bold-105"/>
     <use x="3040.888672" xlink:href="#DejaVuSans-Bold-109"/>
     <use x="3145.087891" xlink:href="#DejaVuSans-Bold-109"/>
     <use x="3249.287109" xlink:href="#DejaVuSans-Bold-117"/>
     <use x="3320.478516" xlink:href="#DejaVuSans-Bold-110"/>
     <use x="3391.669922" xlink:href="#DejaVuSans-Bold-111"/>
     <use x="3460.371094" xlink:href="#DejaVuSans-Bold-105"/>
     <use x="3494.648438" xlink:href="#DejaVuSans-Bold-110"/>
     <use x="3565.839844" xlink:href="#DejaVuSans-Bold-102"/>
     <use x="3609.345703" xlink:href="#DejaVuSans-Bold-111"/>
     <use x="3678.046875" xlink:href="#DejaVuSans-Bold-114"/>
     <use x="3727.363281" xlink:href="#DejaVuSans-Bold-109"/>
     <use x="3831.5625" xlink:href="#DejaVuSans-Bold-97"/>
     <use x="3899.042969" xlink:href="#DejaVuSans-Bold-116"/>
     <use x="3946.845703" xlink:href="#DejaVuSans-Bold-105"/>
     <use x="3981.123047" xlink:href="#DejaVuSans-Bold-99"/>
     <use x="4040.400391" xlink:href="#DejaVuSans-Bold-115"/>
     <use x="4099.921875" xlink:href="#DejaVuSans-Bold-95"/>
     <use x="4149.921875" xlink:href="#DejaVuSans-Bold-112"/>
     <use x="4221.503906" xlink:href="#DejaVuSans-Bold-108"/>
     <use x="4255.78125" xlink:href="#DejaVuSans-Bold-97"/>
     <use x="4323.261719" xlink:href="#DejaVuSans-Bold-116"/>
     <use x="4371.064453" xlink:href="#DejaVuSans-Bold-102"/>
     <use x="4414.570312" xlink:href="#DejaVuSans-Bold-111"/>
     <use x="4483.271484" xlink:href="#DejaVuSans-Bold-114"/>
     <use x="4532.587891" xlink:href="#DejaVuSans-Bold-109"/>
     <use x="4636.787109" xlink:href="#DejaVuSans-Bold-41"/>
    </g>
    <!-- Pre-trial axes (1-2) computable from sequence; post-Phase-1 axes (3-5) require trial data -->
    <defs>
     <path d="M 22.21875 27.984375 
L 2.484375 54.6875 
L 21 54.6875 
L 32.171875 38.484375 
L 43.5 54.6875 
L 62.015625 54.6875 
L 42.28125 28.078125 
L 62.984375 0 
L 44.484375 0 
L 32.171875 17.28125 
L 20.015625 0 
L 1.515625 0 
z
" id="DejaVuSans-Bold-120"/>
     <path d="M 37.5 11.28125 
Q 43.109375 11.28125 46.0625 15.375 
Q 49.03125 19.484375 49.03125 27.296875 
Q 49.03125 35.109375 46.0625 39.203125 
Q 43.109375 43.3125 37.5 43.3125 
Q 31.890625 43.3125 28.875 39.1875 
Q 25.875 35.0625 25.875 27.296875 
Q 25.875 19.53125 28.875 15.40625 
Q 31.890625 11.28125 37.5 11.28125 
z
M 25.875 46.6875 
Q 29.5 51.46875 33.890625 53.734375 
Q 38.28125 56 44 56 
Q 54.109375 56 60.59375 47.96875 
Q 67.09375 39.9375 67.09375 27.296875 
Q 67.09375 14.65625 60.59375 6.609375 
Q 54.109375 -1.421875 44 -1.421875 
Q 38.28125 -1.421875 33.890625 0.84375 
Q 29.5 3.125 25.875 7.90625 
L 25.875 0 
L 8.40625 0 
L 8.40625 75.984375 
L 25.875 75.984375 
z
" id="DejaVuSans-Bold-98"/>
     <path d="M 34.078125 43.3125 
Q 28.515625 43.3125 25.5625 39.203125 
Q 22.609375 35.109375 22.609375 27.296875 
Q 22.609375 19.484375 25.5625 15.375 
Q 28.515625 11.28125 34.078125 11.28125 
Q 39.703125 11.28125 42.65625 15.375 
Q 45.609375 19.484375 45.609375 27.296875 
Q 45.609375 35.109375 42.65625 39.203125 
Q 39.703125 43.3125 34.078125 43.3125 
z
M 45.609375 7.90625 
Q 42 3.078125 37.640625 0.828125 
Q 33.296875 -1.421875 27.59375 -1.421875 
Q 17.484375 -1.421875 10.984375 6.609375 
Q 4.5 14.65625 4.5 27.296875 
Q 4.5 39.9375 10.984375 47.921875 
Q 17.484375 55.90625 27.59375 55.90625 
Q 33.296875 55.90625 37.640625 53.65625 
Q 42 51.421875 45.609375 46.578125 
L 45.609375 54.6875 
L 63.1875 54.6875 
L 63.1875 -20.796875 
L 45.609375 -20.796875 
z
" id="DejaVuSans-Bold-113"/>
     <path d="M 11.1875 18.890625 
L 28.8125 18.890625 
L 28.8125 4 
L 16.703125 -14.203125 
L 6.296875 -14.203125 
L 11.1875 4 
z
M 11.1875 54.6875 
L 28.8125 54.6875 
L 28.8125 35.796875 
L 11.1875 35.796875 
z
" id="DejaVuSans-Bold-59"/>
     <path d="M 63.375 33.296875 
L 63.375 0 
L 45.796875 0 
L 45.796875 5.421875 
L 45.796875 25.390625 
Q 45.796875 32.5625 45.484375 35.25 
Q 45.171875 37.9375 44.390625 39.203125 
Q 43.359375 40.921875 41.59375 41.875 
Q 39.84375 42.828125 37.59375 42.828125 
Q 32.125 42.828125 29 38.59375 
Q 25.875 34.375 25.875 26.90625 
L 25.875 0 
L 8.40625 0 
L 8.40625 75.984375 
L 25.875 75.984375 
L 25.875 46.6875 
Q 29.828125 51.46875 34.265625 53.734375 
Q 38.71875 56 44.09375 56 
Q 53.5625 56 58.46875 50.1875 
Q 63.375 44.390625 63.375 33.296875 
z
" id="DejaVuSans-Bold-104"/>
     <path d="M 45.609375 46.6875 
L 45.609375 75.984375 
L 63.1875 75.984375 
L 63.1875 0 
L 45.609375 0 
L 45.609375 7.90625 
Q 42 3.078125 37.640625 0.828125 
Q 33.296875 -1.421875 27.59375 -1.421875 
Q 17.484375 -1.421875 10.984375 6.609375 
Q 4.5 14.65625 4.5 27.296875 
Q 4.5 39.9375 10.984375 47.96875 
Q 17.484375 56 27.59375 56 
Q 33.25 56 37.625 53.734375 
Q 42 51.46875 45.609375 46.6875 
z
M 34.078125 11.28125 
Q 39.703125 11.28125 42.65625 15.375 
Q 45.609375 19.484375 45.609375 27.296875 
Q 45.609375 35.109375 42.65625 39.203125 
Q 39.703125 43.3125 34.078125 43.3125 
Q 28.515625 43.3125 25.5625 39.203125 
Q 22.609375 35.109375 22.609375 27.296875 
Q 22.609375 19.484375 25.5625 15.375 
Q 28.515625 11.28125 34.078125 11.28125 
z
" id="DejaVuSans-Bold-100"/>
    </defs>
    <g transform="translate(150.375859 28.181812)scale(0.11 -0.11)">
     <use xlink:href="#DejaVuSans-Bold-80"/>
     <use x="73.291016" xlink:href="#DejaVuSans-Bold-114"/>
     <use x="122.607422" xlink:href="#DejaVuSans-Bold-101"/>
     <use x="190.429688" xlink:href="#DejaVuSans-Bold-45"/>
     <use x="231.933594" xlink:href="#DejaVuSans-Bold-116"/>
     <use x="279.736328" xlink:href="#DejaVuSans-Bold-114"/>
     <use x="329.052734" xlink:href="#DejaVuSans-Bold-105"/>
     <use x="363.330078" xlink:href="#DejaVuSans-Bold-97"/>
     <use x="430.810547" xlink:href="#DejaVuSans-Bold-108"/>
     <use x="465.087891" xlink:href="#DejaVuSans-Bold-32"/>
     <use x="499.902344" xlink:href="#DejaVuSans-Bold-97"/>
     <use x="567.382812" xlink:href="#DejaVuSans-Bold-120"/>
     <use x="631.884766" xlink:href="#DejaVuSans-Bold-101"/>
     <use x="699.707031" xlink:href="#DejaVuSans-Bold-115"/>
     <use x="759.228516" xlink:href="#DejaVuSans-Bold-32"/>
     <use x="794.042969" xlink:href="#DejaVuSans-Bold-40"/>
     <use x="839.746094" xlink:href="#DejaVuSans-Bold-49"/>
     <use x="909.326172" xlink:href="#DejaVuSans-Bold-45"/>
     <use x="950.830078" xlink:href="#DejaVuSans-Bold-50"/>
     <use x="1020.410156" xlink:href="#DejaVuSans-Bold-41"/>
     <use x="1066.113281" xlink:href="#DejaVuSans-Bold-32"/>
     <use x="1100.927734" xlink:href="#DejaVuSans-Bold-99"/>
     <use x="1160.205078" xlink:href="#DejaVuSans-Bold-111"/>
     <use x="1228.90625" xlink:href="#DejaVuSans-Bold-109"/>
     <use x="1333.105469" xlink:href="#DejaVuSans-Bold-112"/>
     <use x="1404.6875" xlink:href="#DejaVuSans-Bold-117"/>
     <use x="1475.878906" xlink:href="#DejaVuSans-Bold-116"/>
     <use x="1523.681641" xlink:href="#DejaVuSans-Bold-97"/>
     <use x="1591.162109" xlink:href="#DejaVuSans-Bold-98"/>
     <use x="1662.744141" xlink:href="#DejaVuSans-Bold-108"/>
     <use x="1697.021484" xlink:href="#DejaVuSans-Bold-101"/>
     <use x="1764.84375" xlink:href="#DejaVuSans-Bold-32"/>
     <use x="1799.658203" xlink:href="#DejaVuSans-Bold-102"/>
     <use x="1843.164062" xlink:href="#DejaVuSans-Bold-114"/>
     <use x="1892.480469" xlink:href="#DejaVuSans-Bold-111"/>
     <use x="1961.181641" xlink:href="#DejaVuSans-Bold-109"/>
     <use x="2065.380859" xlink:href="#DejaVuSans-Bold-32"/>
     <use x="2100.195312" xlink:href="#DejaVuSans-Bold-115"/>
     <use x="2159.716797" xlink:href="#DejaVuSans-Bold-101"/>
     <use x="2227.539062" xlink:href="#DejaVuSans-Bold-113"/>
     <use x="2299.121094" xlink:href="#DejaVuSans-Bold-117"/>
     <use x="2370.3125" xlink:href="#DejaVuSans-Bold-101"/>
     <use x="2438.134766" xlink:href="#DejaVuSans-Bold-110"/>
     <use x="2509.326172" xlink:href="#DejaVuSans-Bold-99"/>
     <use x="2568.603516" xlink:href="#DejaVuSans-Bold-101"/>
     <use x="2636.425781" xlink:href="#DejaVuSans-Bold-59"/>
     <use x="2676.416016" xlink:href="#DejaVuSans-Bold-32"/>
     <use x="2711.230469" xlink:href="#DejaVuSans-Bold-112"/>
     <use x="2782.8125" xlink:href="#DejaVuSans-Bold-111"/>
     <use x="2851.513672" xlink:href="#DejaVuSans-Bold-115"/>
     <use x="2911.035156" xlink:href="#DejaVuSans-Bold-116"/>
     <use x="2958.837891" xlink:href="#DejaVuSans-Bold-45"/>
     <use x="3000.341797" xlink:href="#DejaVuSans-Bold-80"/>
     <use x="3073.632812" xlink:href="#DejaVuSans-Bold-104"/>
     <use x="3144.824219" xlink:href="#DejaVuSans-Bold-97"/>
     <use x="3212.304688" xlink:href="#DejaVuSans-Bold-115"/>
     <use x="3271.826172" xlink:href="#DejaVuSans-Bold-101"/>
     <use x="3339.648438" xlink:href="#DejaVuSans-Bold-45"/>
     <use x="3381.152344" xlink:href="#DejaVuSans-Bold-49"/>
     <use x="3450.732422" xlink:href="#DejaVuSans-Bold-32"/>
     <use x="3485.546875" xlink:href="#DejaVuSans-Bold-97"/>
     <use x="3553.027344" xlink:href="#DejaVuSans-Bold-120"/>
     <use x="3617.529297" xlink:href="#DejaVuSans-Bold-101"/>
     <use x="3685.351562" xlink:href="#DejaVuSans-Bold-115"/>
     <use x="3744.873047" xlink:href="#DejaVuSans-Bold-32"/>
     <use x="3779.6875" xlink:href="#DejaVuSans-Bold-40"/>
     <use x="3825.390625" xlink:href="#DejaVuSans-Bold-51"/>
     <use x="3894.970703" xlink:href="#DejaVuSans-Bold-45"/>
     <use x="3936.474609" xlink:href="#DejaVuSans-Bold-53"/>
     <use x="4006.054688" xlink:href="#DejaVuSans-Bold-41"/>
     <use x="4051.757812" xlink:href="#DejaVuSans-Bold-32"/>
     <use x="4086.572266" xlink:href="#DejaVuSans-Bold-114"/>
     <use x="4135.888672" xlink:href="#DejaVuSans-Bold-101"/>
     <use x="4203.710938" xlink:href="#DejaVuSans-Bold-113"/>
     <use x="4275.292969" xlink:href="#DejaVuSans-Bold-117"/>
     <use x="4346.484375" xlink:href="#DejaVuSans-Bold-105"/>
     <use x="4380.761719" xlink:href="#DejaVuSans-Bold-114"/>
     <use x="4430.078125" xlink:href="#DejaVuSans-Bold-101"/>
     <use x="4497.900391" xlink:href="#DejaVuSans-Bold-32"/>
     <use x="4532.714844" xlink:href="#DejaVuSans-Bold-116"/>
     <use x="4580.517578" xlink:href="#DejaVuSans-Bold-114"/>
     <use x="4629.833984" xlink:href="#DejaVuSans-Bold-105"/>
     <use x="4664.111328" xlink:href="#DejaVuSans-Bold-97"/>
     <use x="4731.591797" xlink:href="#DejaVuSans-Bold-108"/>
     <use x="4765.869141" xlink:href="#DejaVuSans-Bold-32"/>
     <use x="4800.683594" xlink:href="#DejaVuSans-Bold-100"/>
     <use x="4872.265625" xlink:href="#DejaVuSans-Bold-97"/>
     <use x="4939.746094" xlink:href="#DejaVuSans-Bold-116"/>
     <use x="4987.548828" xlink:href="#DejaVuSans-Bold-97"/>
    </g>
   </g>
  </g>
 </g>
 <defs>
  <clipPath id="p464728c286">
   <rect height="382.512" width="842.4" x="7.2" y="34.181812"/>
  </clipPath>
 </defs>
</svg>
